<svg xmlns="http://www.w3.org/2000/svg" xmlns:xlink="http://www.w3.org/1999/xlink" width="512" height="512" viewBox="0 0 512 512">
  <defs>
    <clipPath id="clip-Artboard_2">
      <rect width="512" height="512"/>
    </clipPath>
  </defs>
  <g id="Artboard_2" data-name="Artboard – 2" clip-path="url(#clip-Artboard_2)">
    <rect width="512" height="512" fill="rgba(255,255,255,0)"/>
    <path id="Path_14" data-name="Path 14" d="M2501.142,40.422a68.391,68.391,0,0,0-57.345-31.3H2121.7a67.817,67.817,0,0,0-38.709,12.087A69.078,69.078,0,0,0,2064.334,40.4a68.023,68.023,0,0,0-10.889,36.986V298.2a68.349,68.349,0,0,0,68.255,68.258h322.1a68.352,68.352,0,0,0,68.258-68.258V77.384a67.75,67.75,0,0,0-10.914-36.962M2121.7,35.153h322.1a41.6,41.6,0,0,1,15.958,3.143l-177,132.882L2105.767,38.3a41.483,41.483,0,0,1,15.933-3.143M2486.026,298.2a42.279,42.279,0,0,1-42.229,42.229H2121.7a42.279,42.279,0,0,1-42.229-42.229V77.384a41.83,41.83,0,0,1,5.778-21.273l180.138,135.253a28.912,28.912,0,0,0,34.724,0L2480.249,56.092a41.875,41.875,0,0,1,5.777,21.292Z" transform="translate(-2026.445 67.876)" fill="#fff"/>
  </g>
</svg>
