<svg xmlns="http://www.w3.org/2000/svg" xmlns:xlink="http://www.w3.org/1999/xlink" width="512" height="512" viewBox="0 0 512 512">
  <defs>
    <clipPath id="clip-Artboard_6">
      <rect width="512" height="512"/>
    </clipPath>
  </defs>
  <g id="Artboard_6" data-name="Artboard – 6" clip-path="url(#clip-Artboard_6)">
    <rect width="512" height="512" fill="rgba(255,255,255,0)"/>
    <path id="Path_11" data-name="Path 11" d="M710.591,83.094a105.8,105.8,0,0,0-26.847-45.2,106.865,106.865,0,0,0-45.364-26.83C621.441,5.977,600.272,3.5,573.662,3.5h-95.99c-26.624,0-47.764,2.473-64.631,7.563a108.506,108.506,0,0,0-45.4,26.767A104.155,104.155,0,0,0,340.74,83c-4.935,16.693-7.335,37.947-7.335,64.977v95.784c0,26.883,2.4,48.069,7.335,64.762A106.73,106.73,0,0,0,413,380.589c16.681,4.935,38.438,7.439,64.668,7.439h95.99c26.6,0,47.725-2.436,64.58-7.444A106.468,106.468,0,0,0,683.686,353.7,102.677,102.677,0,0,0,710.6,308.612c4.933-16.78,7.328-37.992,7.328-64.849V147.979c0-27.011-2.4-48.233-7.338-64.885M691.37,243.763c0,23.946-2.1,43.245-6.249,57.359a75.433,75.433,0,0,1-20.037,33.621l-.116.116a79.192,79.192,0,0,1-34.3,20.266c-14.162,4.21-33.343,6.343-57.01,6.343h-95.99c-23.678,0-42.9-2.136-57.132-6.348A77.761,77.761,0,0,1,386.308,334.8a76.824,76.824,0,0,1-20.1-33.8c-4.144-14.017-6.247-33.275-6.247-57.235V147.979c0-24.1,2.1-43.431,6.247-57.451a76.844,76.844,0,0,1,20.1-33.8A81.043,81.043,0,0,1,420.717,36.5c14.141-4.27,33.3-6.433,56.955-6.433h95.99c23.651,0,42.855,2.165,57.076,6.435a79.463,79.463,0,0,1,34.228,20.174,78.428,78.428,0,0,1,20.162,33.979c4.142,13.962,6.242,33.251,6.242,57.327ZM521.241,110.286a89.906,89.906,0,1,0,89.906,89.908,90.008,90.008,0,0,0-89.906-89.908m0,153.252a63.347,63.347,0,1,1,63.347-63.344,63.418,63.418,0,0,1-63.347,63.344M641.5,99.925a20.9,20.9,0,1,1-20.9-20.9,20.9,20.9,0,0,1,20.9,20.9" transform="translate(-269.405 60.496)" fill="#fff"/>
  </g>
</svg>
