<svg xmlns="http://www.w3.org/2000/svg" xmlns:xlink="http://www.w3.org/1999/xlink" width="512" height="512" viewBox="0 0 512 512">
  <defs>
    <clipPath id="clip-Artboard_5">
      <rect width="512" height="512"/>
    </clipPath>
  </defs>
  <g id="Artboard_5" data-name="Artboard – 5" clip-path="url(#clip-Artboard_5)">
    <rect width="512" height="512" fill="rgba(255,255,255,0)"/>
    <path id="Path_10" data-name="Path 10" d="M186.1,406.213h-5.72c-31.938,0-58.788-22.605-65.932-52.926a78.419,78.419,0,0,1-45.93-8.474,79.759,79.759,0,0,1-33.359-34.146,115.341,115.341,0,0,1-4.63-10.853c-1.945-5.033-3.779-9.786-6.287-12.872-.066-.082-.129-.161-.192-.245a10.069,10.069,0,0,0-6.969-3.771A19.041,19.041,0,0,1,17.63,245c15.978-1.091,31.459,5.607,42.41,18.358a106.952,106.952,0,0,1,9.512,13.589,75.59,75.59,0,0,0,7.879,11.175,26.784,26.784,0,0,0,12.453,7.694,21.87,21.87,0,0,0,26.84-14.113q.636-1.858,1.407-3.639-4.589-1.15-9.046-2.427A120.765,120.765,0,0,1,21.3,162.24c-.034-1.062-.045-2.176-.045-3.3A121.561,121.561,0,0,1,44.257,87.976,85.158,85.158,0,0,1,53.1,13.76a13.244,13.244,0,0,1,9.57-5.934,80.744,80.744,0,0,1,71.449,28.539,265.65,265.65,0,0,1,99.783,0,80.787,80.787,0,0,1,71.46-28.539,13.249,13.249,0,0,1,9.573,5.939,85.219,85.219,0,0,1,8.846,74.208,121.6,121.6,0,0,1,23.006,70.957v.005c0,1.128-.013,2.242-.047,3.373a120.758,120.758,0,0,1-87.8,113.321q-5.039,1.443-10.139,2.7a55.043,55.043,0,0,1,5.088,23.188V337.2c0,38.057-30.413,69.017-67.792,69.017m-60.254-82.276A13.259,13.259,0,0,1,139.11,337.2c0,23.435,18.516,42.5,41.274,42.5h5.72c22.758,0,41.274-19.067,41.274-42.5V301.518a28.132,28.132,0,0,0-10.095-21.736,13.258,13.258,0,0,1,6.271-23.272,258.085,258.085,0,0,0,28.091-6.371c39.319-11.278,67.529-47.706,68.593-88.584.029-.92.037-1.763.037-2.617a95.031,95.031,0,0,0-21.849-60.43,13.254,13.254,0,0,1-1.8-14.076,58.491,58.491,0,0,0-.727-50.641,54.709,54.709,0,0,0-45.432,24.616,13.254,13.254,0,0,1-13.9,5.578,239.93,239.93,0,0,0-105.1,0,13.264,13.264,0,0,1-13.907-5.578A54.681,54.681,0,0,0,72.134,33.794a58.447,58.447,0,0,0-.725,50.633,13.258,13.258,0,0,1-1.794,14.081,95.016,95.016,0,0,0-21.849,60.43c0,.851.008,1.7.032,2.551,1.062,40.942,29.266,77.37,68.6,88.656,5.4,1.549,11.03,2.956,16.714,4.184,3.307.714,6.724,1.375,10.15,1.971a13.257,13.257,0,0,1,6.124,23.335,23.16,23.16,0,0,0-7.57,10.645,48.388,48.388,0,0,1-58.844,31.129q-2.3-.62-4.543-1.457,1.253.759,2.543,1.449a51.764,51.764,0,0,0,31.93,5.338,53.853,53.853,0,0,0,8.772-2.126,13.19,13.19,0,0,1,4.179-.677" transform="translate(77 49.727)" fill="#fff"/>
  </g>
</svg>
