<svg xmlns="http://www.w3.org/2000/svg" xmlns:xlink="http://www.w3.org/1999/xlink" width="512" height="512" viewBox="0 0 512 512">
  <defs>
    <clipPath id="clip-Artboard_4">
      <rect width="512" height="512"/>
    </clipPath>
  </defs>
  <g id="Artboard_4" data-name="Artboard – 4" clip-path="url(#clip-Artboard_4)">
    <rect width="512" height="512" fill="rgba(255,255,255,0)"/>
    <g id="Group_50" data-name="Group 50" transform="translate(33 55)">
      <path id="Path_15" data-name="Path 15" d="M2848.56,199.882a57.311,57.311,0,0,0-85.633-49.8c-32.518-21.974-74.7-35.542-119.13-38.435l17.358-79.863,62.853,13.664a35.237,35.237,0,1,0,8.436-27.877L2653.137.329a14.518,14.518,0,0,0-17.269,11.1l-21.713,99.9c-46.682,1.993-91.262,15.769-125.268,38.747a57.329,57.329,0,0,0-62.841,95.61c-.346,3.5-.52,7.028-.52,10.565,0,39.775,21.524,76.817,60.608,104.3,37.53,26.392,87.172,40.927,139.781,40.927s102.246-14.535,139.77-40.927c39.074-27.486,60.594-64.527,60.594-104.3,0-3.532-.175-7.062-.518-10.563a56.932,56.932,0,0,0,22.8-45.807m-44.921,25.456-10.026,4.909,2.17,10.947a77.739,77.739,0,0,1,1.464,15.058c0,64.072-76.859,116.2-171.332,116.2s-171.358-52.126-171.358-116.2a77.479,77.479,0,0,1,1.461-15.05l2.177-10.952-10.028-4.911a28.283,28.283,0,1,1,31.136-46.6l8.958,7.984,9.525-7.3c32.617-25,79.3-39.335,128.087-39.342l.055,0,.031,0c48.768.007,95.441,14.346,128.056,39.342l9.51,7.287,8.956-7.955a28.282,28.282,0,1,1,31.156,46.583" transform="translate(-2403.268 0)" fill="#fff"/>
      <path id="Path_16" data-name="Path 16" d="M2517.924,112.328a31.036,31.036,0,1,0-31.035,31.037,31.036,31.036,0,0,0,31.035-31.037" transform="translate(-2328.636 115.376)" fill="#fff"/>
      <path id="Path_17" data-name="Path 17" d="M2540.12,81.291a31.036,31.036,0,1,0,31.037,31.037,31.036,31.036,0,0,0-31.037-31.037" transform="translate(-2253.084 115.376)" fill="#fff"/>
      <path id="Path_18" data-name="Path 18" d="M2609.944,124.134a12.73,12.73,0,0,0-15.953-1.58c-13.4,8.888-33.41,14.179-54.884,14.179s-41.489-5.286-54.886-14.175a12.785,12.785,0,0,0-14.182,21.275c17.712,11.736,42.413,18.483,69.068,18.483s51.354-6.747,69.071-18.488A12.754,12.754,0,0,0,2609.944,124.134Z" transform="translate(-2316.46 170.959)" fill="#fff"/>
    </g>
  </g>
</svg>
