<svg xmlns="http://www.w3.org/2000/svg" xmlns:xlink="http://www.w3.org/1999/xlink" width="512" height="512" viewBox="0 0 512 512">
  <defs>
    <clipPath id="clip-Artboard_3">
      <rect width="512" height="512"/>
    </clipPath>
  </defs>
  <g id="Artboard_3" data-name="Artboard – 3" clip-path="url(#clip-Artboard_3)">
    <rect width="512" height="512" fill="rgba(255,255,255,0)"/>
    <path id="Path_13" data-name="Path 13" d="M1160.091,373.639A255.8,255.8,0,0,1,1020.8,332.6a12.173,12.173,0,0,1,8.078-22.306,161.188,161.188,0,0,0,19.386,1.161,159.412,159.412,0,0,0,74.142-18.007,96.915,96.915,0,0,1-61.847-62.764,12.176,12.176,0,0,1,4.822-13.812q-2.958-2.479-5.739-5.2a96.544,96.544,0,0,1-29.218-69.513c0-1.06.015-2.119.06-3.167a12.172,12.172,0,0,1,6.264-10.1,12.3,12.3,0,0,1,6.358-1.517,97.445,97.445,0,0,1-12.682-48.091c0-2.535.094-5.042.281-7.451a97.323,97.323,0,0,1,14.53-44.179,12.172,12.172,0,0,1,19.84-1.106,229.239,229.239,0,0,0,21.943,23.9c2.726,2.577,5.516,5.1,8.3,7.485a227.879,227.879,0,0,0,66.526,39.8c3.684,1.437,7.541,2.814,11.5,4.108a229.1,229.1,0,0,0,30.524,7.643c2.7.486,5.484.927,8.523,1.35,2.134.3,4.253.561,6.317.789q-.145-2.711-.148-5.426A99.063,99.063,0,0,1,1272.08,18.27c1.183-.61,2.361-1.193,3.551-1.742a99.019,99.019,0,0,1,108.8,16.792q2.91-.675,5.8-1.478A138.1,138.1,0,0,0,1429.45,13.9a12.172,12.172,0,0,1,18.323,13.838,107.949,107.949,0,0,1-5.356,13.584q-2.192,4.641-4.812,9.06,2.025-.944,4.024-1.96a12.175,12.175,0,0,1,15.892,17.23,152.213,152.213,0,0,1-40.782,43.685c.073,2.492.109,5.013.109,7.546,0,141.574-115.182,256.754-256.757,256.754M1076.3,333.726a232.174,232.174,0,0,0,83.792,15.568c128.149,0,232.409-104.259,232.409-232.409,0-4.449-.123-8.852-.37-13.088a12.179,12.179,0,0,1,5.545-10.925,125.024,125.024,0,0,0,11.591-8.475c-2.25.373-4.519.7-6.793.968a12.172,12.172,0,0,1-10.814-20.138c.15-.167.3-.331.462-.494a12.485,12.485,0,0,1,1.457-1.26,86.507,86.507,0,0,0,12.285-11.005q-4.5,1.546-9.1,2.831c-4.657,1.292-9.372,2.381-14.022,3.237a12.16,12.16,0,0,1-11.049-3.6A74.652,74.652,0,0,0,1285.906,38.6c-.934.433-1.8.864-2.656,1.3a74.71,74.71,0,0,0-38.595,82.408,12.171,12.171,0,0,1-12.44,14.789c-4.592-.208-9.329-.564-14.078-1.055-2.928-.3-6-.665-9.1-1.1-3.373-.467-6.469-.96-9.469-1.5a252.586,252.586,0,0,1-33.776-8.46c-4.4-1.437-8.69-2.968-12.755-4.553a252.165,252.165,0,0,1-73.585-44.026c-3.078-2.644-6.16-5.424-9.162-8.262q-6.075-5.737-11.8-11.92a72.962,72.962,0,0,0-3.515,17.462c-.142,1.829-.21,3.653-.21,5.593a72.836,72.836,0,0,0,30.033,59h.019a12.173,12.173,0,0,1,9.752,19.458c-.322.426-.631.859-.936,1.3a12.179,12.179,0,0,1-16.417,3.438c-.065-.044-.133-.085-.2-.126a97.57,97.57,0,0,1-20.409-3.764,73.167,73.167,0,0,0,57.84,55.341,12.172,12.172,0,0,1,1,23.719,96.936,96.936,0,0,1-23.315,3.358,72.724,72.724,0,0,0,61.165,33.067c.685,0,1.369-.007,2.044-.029a12.171,12.171,0,0,1,8,21.7,183.026,183.026,0,0,1-87.036,37.976" transform="translate(-981.234 65.747)" fill="#fff"/>
  </g>
</svg>
