<?xml version="1.0" encoding="utf-8"?>
<!-- Generator: Adobe Illustrator 25.1.0, SVG Export Plug-In . SVG Version: 6.00 Build 0)  -->
<svg version="1.1" id="Layer_1" xmlns="http://www.w3.org/2000/svg" xmlns:xlink="http://www.w3.org/1999/xlink" x="0px" y="0px"
	 viewBox="0 0 3300 2200" style="enable-background:new 0 0 3300 2200;" xml:space="preserve">
<style type="text/css">
	.st0{fill:#FFFFFF;}
	.st1{fill:none;stroke:#000000;stroke-width:0.5;}
	.st2{enable-background:new    ;}
	.st3{font-family:'MyriadPro-Regular';}
	.st4{font-size:12px;}
	.st5{font-family:'ArialHebrew-Bold';}
	.st6{font-family:'ArialHebrew';}
	.st7{fill:none;stroke:#00AEEF;stroke-width:0.5;}
	.st8{fill:#27AAE1;}
	.st9{fill:none;stroke:#27AAE1;stroke-width:0.5;}
</style>
<g id="Notes">
	<rect id="artboard" class="st0" width="3300" height="2200"/>
	<line class="st1" x1="263" y1="292" x2="3036" y2="292"/>
	<text transform="matrix(1 0 0 1 263 322)" class="st2"><tspan x="0" y="0" class="st3 st4">Weight</tspan><tspan x="36.3" y="0" class="st5 st4">/</tspan><tspan x="40.2" y="0" class="st3 st4">Scale</tspan><tspan x="66.1" y="0" class="st5 st4"> </tspan><tspan x="69.5" y="0" class="st3 st4">Variations</tspan></text>
	<text transform="matrix(1 0 0 1 514.711 322)" class="st3 st4">Ultralight</text>
	<text transform="matrix(1 0 0 1 838.422 322)" class="st3 st4">Thin</text>
	<text transform="matrix(1 0 0 1 1130.63 322)" class="st3 st4">Light</text>
	<text transform="matrix(1 0 0 1 1418.34 322)" class="st3 st4">Regular</text>
	<text transform="matrix(1 0 0 1 1719.5601 322)" class="st3 st4">Medium</text>
	<text transform="matrix(1 0 0 1 2007.27 322)" class="st3 st4">Semibold</text>
	<text transform="matrix(1 0 0 1 2321.98 322)" class="st3 st4">Bold</text>
	<text transform="matrix(1 0 0 1 2614.1899 322)" class="st3 st4">Heavy</text>
	<text transform="matrix(1 0 0 1 2910.8999 322)" class="st3 st4">Black</text>
	<line class="st1" x1="263" y1="1903" x2="3036" y2="1903"/>
	<g transform="matrix(1 0 0 1 263 1933)">
		<path d="M9.2,0.8c4.3,0,7.9-3.6,7.9-7.9c0-4.3-3.6-7.9-7.9-7.9c-4.3,0-7.9,3.6-7.9,7.9C1.4-2.7,5,0.8,9.2,0.8z M9.2-0.7
			c-3.5,0-6.4-2.8-6.4-6.4c0-3.6,2.8-6.4,6.4-6.4c3.6,0,6.4,2.8,6.4,6.4C15.7-3.5,12.8-0.7,9.2-0.7z M6.4-6.3h2.1v2.1
			c0,0.4,0.3,0.7,0.7,0.7c0.4,0,0.7-0.3,0.7-0.7v-2.1h2.1c0.4,0,0.7-0.3,0.7-0.7c0-0.4-0.3-0.7-0.7-0.7H10v-2.1
			c0-0.4-0.3-0.8-0.7-0.8c-0.4,0-0.7,0.3-0.7,0.8v2.1H6.4C5.9-7.8,5.6-7.5,5.6-7C5.6-6.6,5.9-6.3,6.4-6.3z"/>
	</g>
	<g transform="matrix(1 0 0 1 281.506 1933)">
		<path d="M11.7,2.9c5.4,0,10-4.5,10-10c0-5.4-4.5-10-10-10c-5.4,0-10,4.5-10,10C1.7-1.6,6.3,2.9,11.7,2.9z M11.7,1.2
			c-4.6,0-8.3-3.7-8.3-8.3c0-4.6,3.7-8.3,8.3-8.3c4.6,0,8.3,3.7,8.3,8.3C20-2.4,16.3,1.2,11.7,1.2z M8-6.2h2.9v2.9
			c0,0.5,0.3,0.8,0.8,0.8c0.5,0,0.8-0.3,0.8-0.8v-2.9h2.9c0.5,0,0.8-0.3,0.8-0.8c0-0.5-0.3-0.8-0.8-0.8h-2.9v-2.9
			c0-0.5-0.3-0.8-0.8-0.8c-0.5,0-0.8,0.3-0.8,0.8v2.9H8C7.5-7.9,7.1-7.5,7.1-7C7.1-6.6,7.5-6.2,8-6.2z"/>
	</g>
	<g transform="matrix(1 0 0 1 304.924 1933)">
		<path d="M15,5.7c7,0,12.7-5.8,12.7-12.7c0-7-5.8-12.7-12.7-12.7C8-19.8,2.3-14,2.3-7.1C2.3-0.1,8,5.7,15,5.7z M15,3.8
			C8.9,3.8,4.1-1,4.1-7.1c0-6,4.8-10.9,10.9-10.9c6,0,10.9,4.9,10.9,10.9C25.9-1,21,3.8,15,3.8z M10.1-6.1h4v4
			c0,0.5,0.4,0.9,0.9,0.9c0.5,0,0.9-0.4,0.9-0.9v-4h4c0.5,0,0.9-0.4,0.9-0.9c0-0.5-0.4-0.9-0.9-0.9h-4v-4c0-0.6-0.4-0.9-0.9-0.9
			c-0.5,0-0.9,0.4-0.9,0.9v4h-4C9.5-7.9,9.1-7.6,9.1-7C9.1-6.5,9.5-6.1,10.1-6.1z"/>
	</g>
	<text transform="matrix(1 0 0 1 263 1953)" class="st2"><tspan x="0" y="0" class="st3 st4">Design</tspan><tspan x="34.9" y="0" class="st5 st4"> </tspan><tspan x="38.3" y="0" class="st3 st4">Variations</tspan></text>
	<text transform="matrix(1 0 0 1 263 1971)" class="st2"><tspan x="0" y="0" class="st3 st4">Symbols</tspan><tspan x="42.6" y="0" class="st6 st4"> </tspan><tspan x="45.9" y="0" class="st3 st4">are</tspan><tspan x="61.6" y="0" class="st6 st4"> </tspan><tspan x="65" y="0" class="st3 st4">supported</tspan><tspan x="117.3" y="0" class="st6 st4"> </tspan><tspan x="120.6" y="0" class="st3 st4">in</tspan><tspan x="130.1" y="0" class="st6 st4"> </tspan><tspan x="133.4" y="0" class="st3 st4">up</tspan><tspan x="146.8" y="0" class="st6 st4"> </tspan><tspan x="150.2" y="0" class="st3 st4">to</tspan><tspan x="160.7" y="0" class="st6 st4"> </tspan><tspan x="164.1" y="0" class="st3 st4">nine</tspan><tspan x="186.2" y="0" class="st6 st4"> </tspan><tspan x="189.5" y="0" class="st3 st4">weights</tspan><tspan x="229.3" y="0" class="st6 st4"> </tspan><tspan x="232.6" y="0" class="st3 st4">and</tspan><tspan x="251.8" y="0" class="st6 st4"> </tspan><tspan x="255.2" y="0" class="st3 st4">three</tspan><tspan x="281.7" y="0" class="st6 st4"> </tspan><tspan x="285.1" y="0" class="st3 st4">scales</tspan><tspan x="314.6" y="0" class="st6 st4">.</tspan></text>
	<text transform="matrix(1 0 0 1 263 1989)" class="st2"><tspan x="0" y="0" class="st3 st4">For</tspan><tspan x="16.4" y="0" class="st6 st4"> </tspan><tspan x="19.7" y="0" class="st3 st4">optimal</tspan><tspan x="58.5" y="0" class="st6 st4"> </tspan><tspan x="61.8" y="0" class="st3 st4">layout</tspan><tspan x="93.3" y="0" class="st6 st4"> </tspan><tspan x="96.6" y="0" class="st3 st4">with</tspan><tspan x="118.9" y="0" class="st6 st4"> </tspan><tspan x="122.2" y="0" class="st3 st4">text</tspan><tspan x="141.7" y="0" class="st6 st4"> </tspan><tspan x="145.1" y="0" class="st3 st4">and</tspan><tspan x="164.3" y="0" class="st6 st4"> </tspan><tspan x="167.6" y="0" class="st3 st4">other</tspan><tspan x="194.8" y="0" class="st6 st4"> </tspan><tspan x="198.1" y="0" class="st3 st4">symbols</tspan><tspan x="239.5" y="0" class="st6 st4">, </tspan><tspan x="245.4" y="0" class="st3 st4">vertically</tspan><tspan x="290.4" y="0" class="st6 st4"> </tspan><tspan x="293.7" y="0" class="st3 st4">align</tspan></text>
	<text transform="matrix(1 0 0 1 263 2007)" class="st2"><tspan x="0" y="0" class="st3 st4">symbols</tspan><tspan x="41.4" y="0" class="st6 st4"> </tspan><tspan x="44.7" y="0" class="st3 st4">with</tspan><tspan x="67" y="0" class="st6 st4"> </tspan><tspan x="70.4" y="0" class="st3 st4">the</tspan><tspan x="87" y="0" class="st6 st4"> </tspan><tspan x="90.3" y="0" class="st3 st4">adjacent</tspan><tspan x="133.6" y="0" class="st6 st4"> </tspan><tspan x="136.9" y="0" class="st3 st4">text</tspan><tspan x="156.5" y="0" class="st6 st4">.</tspan></text>
	<line class="st7" x1="776" y1="1919" x2="776" y2="1933"/>
	<g transform="matrix(1 0 0 1 776 1933)">
		<path d="M3.3,0.1c0.5,0,0.8-0.2,1-0.7l1.3-3.5h5.8l1.3,3.5c0.2,0.5,0.4,0.7,0.9,0.7c0.5,0,0.8-0.3,0.8-0.8c0-0.2,0-0.3-0.1-0.5
			L9.7-13.4C9.4-14,9-14.3,8.4-14.3c-0.6,0-1,0.3-1.2,0.9L2.6-1.2C2.5-1,2.5-0.8,2.5-0.7C2.5-0.2,2.8,0.1,3.3,0.1z M6-5.5l2.4-6.6h0
			l2.4,6.6H6z"/>
	</g>
	<line class="st7" x1="792.8" y1="1919" x2="792.8" y2="1933"/>
	<text transform="matrix(1 0 0 1 776 1953)" class="st3 st4">Margins</text>
	<text transform="matrix(1 0 0 1 776 1971)" class="st2"><tspan x="0" y="0" class="st3 st4">Leading</tspan><tspan x="40.4" y="0" class="st6 st4"> </tspan><tspan x="43.7" y="0" class="st3 st4">and</tspan><tspan x="63" y="0" class="st6 st4"> </tspan><tspan x="66.3" y="0" class="st3 st4">trailing</tspan><tspan x="101.8" y="0" class="st6 st4"> </tspan><tspan x="105.1" y="0" class="st3 st4">margins</tspan><tspan x="145.8" y="0" class="st6 st4"> </tspan><tspan x="149.1" y="0" class="st3 st4">on</tspan><tspan x="162.3" y="0" class="st6 st4"> </tspan><tspan x="165.7" y="0" class="st3 st4">the</tspan><tspan x="182.3" y="0" class="st6 st4"> </tspan><tspan x="185.7" y="0" class="st3 st4">left</tspan><tspan x="202" y="0" class="st6 st4"> </tspan><tspan x="205.3" y="0" class="st3 st4">and</tspan><tspan x="224.5" y="0" class="st6 st4"> </tspan><tspan x="227.9" y="0" class="st3 st4">right</tspan><tspan x="251.9" y="0" class="st6 st4"> </tspan><tspan x="255.3" y="0" class="st3 st4">side</tspan><tspan x="275.6" y="0" class="st6 st4"> </tspan><tspan x="278.9" y="0" class="st3 st4">of</tspan><tspan x="289" y="0" class="st6 st4"> </tspan><tspan x="292.4" y="0" class="st3 st4">each</tspan><tspan x="316.2" y="0" class="st6 st4"> </tspan><tspan x="319.5" y="0" class="st3 st4">symbol</tspan></text>
	<text transform="matrix(1 0 0 1 776 1989)" class="st2"><tspan x="0" y="0" class="st3 st4">can</tspan><tspan x="17.8" y="0" class="st6 st4"> </tspan><tspan x="21.2" y="0" class="st3 st4">be</tspan><tspan x="34" y="0" class="st6 st4"> </tspan><tspan x="37.3" y="0" class="st3 st4">adjusted</tspan><tspan x="80.9" y="0" class="st6 st4"> </tspan><tspan x="84.3" y="0" class="st3 st4">by</tspan><tspan x="96.7" y="0" class="st6 st4"> </tspan><tspan x="100.1" y="0" class="st3 st4">modifying</tspan><tspan x="151.6" y="0" class="st6 st4"> </tspan><tspan x="154.9" y="0" class="st3 st4">the</tspan><tspan x="171.5" y="0" class="st6 st4"> </tspan><tspan x="174.9" y="0" class="st3 st4">x</tspan><tspan x="180.4" y="0" class="st6 st4">-</tspan><tspan x="184.6" y="0" class="st3 st4">location</tspan><tspan x="225.2" y="0" class="st6 st4"> </tspan><tspan x="228.6" y="0" class="st3 st4">of</tspan><tspan x="238.7" y="0" class="st6 st4"> </tspan><tspan x="242" y="0" class="st3 st4">the</tspan><tspan x="258.6" y="0" class="st6 st4"> </tspan><tspan x="262" y="0" class="st3 st4">margin</tspan><tspan x="297.9" y="0" class="st6 st4"> </tspan><tspan x="301.2" y="0" class="st3 st4">guidelines</tspan><tspan x="353.2" y="0" class="st6 st4">.</tspan></text>
	<text transform="matrix(1 0 0 1 776 2007)" class="st2"><tspan x="0" y="0" class="st3 st4">Modifications</tspan><tspan x="68" y="0" class="st6 st4"> </tspan><tspan x="71.4" y="0" class="st3 st4">are</tspan><tspan x="87.1" y="0" class="st6 st4"> </tspan><tspan x="90.4" y="0" class="st3 st4">automatically</tspan><tspan x="158.4" y="0" class="st6 st4"> </tspan><tspan x="161.8" y="0" class="st3 st4">applied</tspan><tspan x="199.6" y="0" class="st6 st4"> </tspan><tspan x="203" y="0" class="st3 st4">proportionally</tspan><tspan x="274.8" y="0" class="st6 st4"> </tspan><tspan x="278.1" y="0" class="st3 st4">to</tspan><tspan x="288.7" y="0" class="st6 st4"> </tspan><tspan x="292" y="0" class="st3 st4">all</tspan></text>
	<text transform="matrix(1 0 0 1 776 2025)" class="st2"><tspan x="0" y="0" class="st3 st4">scales</tspan><tspan x="29.5" y="0" class="st6 st4"> </tspan><tspan x="32.8" y="0" class="st3 st4">and</tspan><tspan x="52.1" y="0" class="st6 st4"> </tspan><tspan x="55.4" y="0" class="st3 st4">weights</tspan><tspan x="95.1" y="0" class="st6 st4">.</tspan></text>
	<g transform="matrix(1 0 0 1 1289 1933)">
		<path d="M2.8,1.9l1.7,1.7c0.9,0.9,1.8,0.8,2.8-0.2L17.5-7.9c0.3,0.1,0.5,0.1,0.8,0L19.4-8l0.7,0.7l0,0.6c0,0.5,0.1,0.9,0.6,1.4
			l0.8,0.7c0.5,0.5,1.1,0.5,1.6,0l2.9-2.9c0.5-0.5,0.4-1.1,0-1.5L25-9.9c-0.5-0.5-0.8-0.6-1.3-0.6l-0.6,0l-0.6-0.6l0.2-1.1
			c0.1-0.6,0-1-0.6-1.6L19.9-16c-3.3-3.3-7.8-3.2-10.7-0.4c-0.4,0.4-0.4,1-0.2,1.4c0.2,0.4,0.7,0.6,1.3,0.4c1.5-0.3,3-0.4,4.4,0.5
			l-0.6,1.5c-0.2,0.5-0.2,0.9-0.1,1.2L3-0.9C2.1,0,2,1,2.8,1.9z M10.8-16c2.4-1.8,5.7-1.5,7.9,0.8l2.4,2.4c0.2,0.2,0.3,0.4,0.2,0.8
			L21-10.5l1.5,1.5l1-0.1c0.3,0,0.3,0,0.5,0.2l0.6,0.6l-2.4,2.4l-0.6-0.6c-0.2-0.2-0.2-0.3-0.2-0.5l0.1-1L20-9.5l-1.5,0.3
			c-0.3,0.1-0.5,0-0.7-0.2l-2-2c-0.3-0.2-0.3-0.4-0.1-0.8l0.9-2.1c-1.6-1.5-3.6-2.1-5.6-1.5C10.7-15.7,10.6-15.8,10.8-16z M5.3,2.3
			L4.1,1.1C3.6,0.7,3.7,0.3,4.1,0L15-10.2l1.5,1.5l-10,11C6.1,2.7,5.7,2.8,5.3,2.3z"/>
	</g>
	<text transform="matrix(1 0 0 1 1289 1953)" class="st3 st4">Exporting</text>
	<text transform="matrix(1 0 0 1 1289 1971)" class="st2"><tspan x="0" y="0" class="st3 st4">Symbols</tspan><tspan x="42.6" y="0" class="st6 st4"> </tspan><tspan x="45.9" y="0" class="st3 st4">should</tspan><tspan x="80.1" y="0" class="st6 st4"> </tspan><tspan x="83.5" y="0" class="st3 st4">be</tspan><tspan x="96.3" y="0" class="st6 st4"> </tspan><tspan x="99.6" y="0" class="st3 st4">outlined</tspan><tspan x="141.9" y="0" class="st6 st4"> </tspan><tspan x="145.2" y="0" class="st3 st4">when</tspan><tspan x="173.4" y="0" class="st6 st4"> </tspan><tspan x="176.7" y="0" class="st3 st4">exporting</tspan><tspan x="225.8" y="0" class="st6 st4"> </tspan><tspan x="229.1" y="0" class="st3 st4">to</tspan><tspan x="239.7" y="0" class="st6 st4"> </tspan><tspan x="243" y="0" class="st3 st4">ensure</tspan><tspan x="277" y="0" class="st6 st4"> </tspan><tspan x="280.3" y="0" class="st3 st4">the</tspan></text>
	<text transform="matrix(1 0 0 1 1289 1989)" class="st2"><tspan x="0" y="0" class="st3 st4">design</tspan><tspan x="33.7" y="0" class="st6 st4"> </tspan><tspan x="37" y="0" class="st3 st4">is</tspan><tspan x="44.6" y="0" class="st6 st4"> </tspan><tspan x="47.9" y="0" class="st3 st4">preserved</tspan><tspan x="97.9" y="0" class="st6 st4"> </tspan><tspan x="101.3" y="0" class="st3 st4">when</tspan><tspan x="129.4" y="0" class="st6 st4"> </tspan><tspan x="132.8" y="0" class="st3 st4">submitting</tspan><tspan x="187.9" y="0" class="st6 st4"> </tspan><tspan x="191.2" y="0" class="st3 st4">to</tspan><tspan x="201.8" y="0" class="st6 st4"> </tspan><tspan x="205.1" y="0" class="st3 st4">Xcode</tspan><tspan x="236.7" y="0" class="st6 st4">.</tspan></text>
	<text id="template-version" transform="matrix(1 0 0 1 2934.9604 1933)" class="st2"><tspan x="0" y="0" class="st3 st4">Template</tspan><tspan x="47.4" y="0" class="st6 st4"> </tspan><tspan x="50.7" y="0" class="st3 st4">v</tspan><tspan x="56.5" y="0" class="st6 st4">.2.0</tspan></text>
	<text transform="matrix(1 0 0 1 2812.9443 1951)" class="st2"><tspan x="0" y="0" class="st3 st4">Requires</tspan><tspan x="43.3" y="0" class="st6 st4"> </tspan><tspan x="46.7" y="0" class="st3 st4">Xcode</tspan><tspan x="78.3" y="0" class="st6 st4"> 12 </tspan><tspan x="96.6" y="0" class="st3 st4">or</tspan><tspan x="107.2" y="0" class="st6 st4"> </tspan><tspan x="110.5" y="0" class="st3 st4">greater</tspan></text>
	<text transform="matrix(1 0 0 1 2858.3281 1969)" class="st2"><tspan x="0" y="0" class="st3 st4">Generated</tspan><tspan x="52.9" y="0" class="st6 st4"> </tspan><tspan x="56.2" y="0" class="st3 st4">from</tspan><tspan x="80.3" y="0" class="st6 st4"> </tspan><tspan x="83.6" y="0" class="st3 st4">square</tspan></text>
	<text transform="matrix(1 0 0 1 2873.4243 1987)" class="st2"><tspan x="0" y="0" class="st3 st4">Typeset</tspan><tspan x="39.2" y="0" class="st6 st4"> </tspan><tspan x="42.5" y="0" class="st3 st4">at</tspan><tspan x="52.3" y="0" class="st6 st4"> 100 </tspan><tspan x="76.5" y="0" class="st3 st4">points</tspan></text>
	<text transform="matrix(1 0 0 1 263 726)" class="st3 st4">Small</text>
	<text transform="matrix(1 0 0 1 263 1156)" class="st3 st4">Medium</text>
	<text transform="matrix(1 0 0 1 263 1586)" class="st3 st4">Large</text>
</g>
<g id="Guides">
	<g id="H-reference" transform="matrix(1 0 0 1 339 696)">
		<path class="st8" d="M1,0h2.7L13-24.5h32.8L55.1,0h2.6L30.6-70.5h-2.5L1,0z M29.3-67.1L29.3-67.1l15.5,40.4h-31L29.3-67.1z"/>
	</g>
	<line id="Baseline-S" class="st9" x1="263" y1="696" x2="3036" y2="696"/>
	<line id="Capline-S" class="st9" x1="263" y1="625.5" x2="3036" y2="625.5"/>
	<g id="H-reference_1_" transform="matrix(1 0 0 1 339 1126)">
		<path class="st8" d="M1,0h2.7L13-24.5h32.8L55.1,0h2.6L30.6-70.5h-2.5L1,0z M29.3-67.1L29.3-67.1l15.5,40.4h-31L29.3-67.1z"/>
	</g>
	<line id="Baseline-M" class="st9" x1="263" y1="1126" x2="3036" y2="1126"/>
	<line id="Capline-M" class="st9" x1="263" y1="1055.5" x2="3036" y2="1055.5"/>
	<g id="H-reference_2_" transform="matrix(1 0 0 1 339 1556)">
		<path class="st8" d="M1,0h2.7L13-24.5h32.8L55.1,0h2.6L30.6-70.5h-2.5L1,0z M29.3-67.1L29.3-67.1l15.5,40.4h-31L29.3-67.1z"/>
	</g>
	<line id="Baseline-L" class="st9" x1="263" y1="1556" x2="3036" y2="1556"/>
	<line id="Capline-L" class="st9" x1="263" y1="1485.5" x2="3036" y2="1485.5"/>
	<line id="left-margin" class="st7" x1="1392.4" y1="1030.8" x2="1392.4" y2="1150.1"/>
	<line id="right-margin" class="st7" x1="1507.2" y1="1030.8" x2="1507.2" y2="1150.1"/>
</g>
<g id="Symbols">
	<g id="Black-L" transform="matrix(1 0 0 1 2855.62 1556)">
		<path d="M40,26.5h75.6c15.2,0,23.9-8.6,23.9-23.8v-75.8c0-15.2-8.7-23.8-23.9-23.8H40c-15.2,0-23.9,8.6-23.9,23.8V2.7
			C16.1,17.9,24.8,26.5,40,26.5z M42.7,6.3c-4.2,0-6.3-1.9-6.3-6.4v-70.1c0-4.5,2.1-6.4,6.3-6.4h70.2c4.2,0,6.4,1.9,6.4,6.4v70.1
			c0,4.5-2.1,6.4-6.4,6.4H42.7z"/>
	</g>
	<g id="Heavy-L" transform="matrix(1 0 0 1 2559.93 1556)">
		<path d="M38.8,25.5h75.9c14.6,0,22.8-8.1,22.8-22.6v-76.1c0-14.6-8.1-22.6-22.8-22.6H38.8c-14.6,0-22.8,8.1-22.8,22.6V2.9
			C16.1,17.4,24.2,25.5,38.8,25.5z M40.9,8c-4.8,0-7.3-2.3-7.3-7.4v-71.5c0-5.1,2.5-7.4,7.3-7.4h71.6c4.8,0,7.4,2.3,7.4,7.4V0.6
			c0,5.1-2.5,7.4-7.4,7.4H40.9z"/>
	</g>
	<g id="Bold-L" transform="matrix(1 0 0 1 2264.37 1556)">
		<path d="M37.5,24.4h76.2c13.9,0,21.4-7.5,21.4-21.3v-76.5c0-13.8-7.5-21.3-21.4-21.3H37.5c-13.9,0-21.4,7.5-21.4,21.3V3.1
			C16.1,16.9,23.6,24.4,37.5,24.4z M39,9.9c-5.5,0-8.4-2.7-8.4-8.5v-73.1c0-5.8,2.9-8.5,8.4-8.5h73.3c5.5,0,8.4,2.7,8.4,8.5V1.4
			c0,5.8-3,8.5-8.4,8.5H39z"/>
	</g>
	<g id="Semibold-L" transform="matrix(1 0 0 1 1968.44 1556)">
		<path d="M36.6,23.6H113c13.5,0,20.6-7.1,20.6-20.4v-76.7c0-13.3-7.1-20.4-20.6-20.4H36.6c-13.4,0-20.6,7.1-20.6,20.4V3.2
			C16.1,16.6,23.2,23.6,36.6,23.6z M37.6,11.3c-6,0-9.2-3.1-9.2-9.3v-74.3c0-6.2,3.2-9.3,9.2-9.3h74.5c5.9,0,9.2,3.1,9.2,9.3V2
			c0,6.2-3.3,9.3-9.2,9.3H37.6z"/>
	</g>
	<g id="Medium-L" transform="matrix(1 0 0 1 1672.31 1556)">
		<path d="M35.9,23h76.6c13.1,0,19.9-6.8,19.9-19.7v-76.9c0-12.9-6.8-19.7-19.9-19.7H35.9c-13,0-19.9,6.7-19.9,19.7V3.3
			C16.1,16.3,22.9,23,35.9,23z M36.6,12.3c-6.3,0-9.8-3.3-9.8-9.9v-75.1c0-6.6,3.4-9.9,9.8-9.9h75.3c6.2,0,9.8,3.3,9.8,9.9V2.4
			c0,6.6-3.6,9.9-9.8,9.9H36.6z"/>
	</g>
	<g id="Regular-L" transform="matrix(1 0 0 1 1376.38 1556)">
		<path d="M35.1,22.2h76.8c12.6,0,19-6.3,19-18.8v-77.1c0-12.5-6.4-18.8-19-18.8H35.1c-12.6,0-19,6.3-19,18.8V3.4
			C16.1,15.9,22.5,22.2,35.1,22.2z M35.3,13.6C28.4,13.6,24.7,10,24.7,3v-76.3c0-7,3.7-10.6,10.5-10.6h76.4
			c6.7,0,10.5,3.6,10.5,10.6V3c0,7-3.9,10.6-10.5,10.6H35.3z"/>
	</g>
	<g id="Light-L" transform="matrix(1 0 0 1 1080.5 1556)">
		<path d="M34,21.4h77.2c11.9,0,18-6.2,18-17.9v-77.4c0-11.7-6.1-17.9-18-17.9H34c-11.9,0-18,6.1-18,17.9V3.6
			C16.1,15.4,22.2,21.4,34,21.4z M34.2,14.8c-7.5,0-11.5-4-11.5-11.6v-76.7c0-7.7,4-11.6,11.5-11.6H111c7.3,0,11.5,3.9,11.5,11.6
			V3.2c0,7.6-4.2,11.6-11.5,11.6H34.2z"/>
	</g>
	<g id="Thin-L" transform="matrix(1 0 0 1 784.889 1556)">
		<path d="M32.7,20.4h77.7c10.9,0,16.7-5.9,16.7-16.6V-74c0-10.7-5.8-16.6-16.7-16.6H32.7c-10.9,0-16.6,5.7-16.6,16.6V3.8
			C16.1,14.6,21.8,20.4,32.7,20.4z M32.8,16.4C24.4,16.4,20,12,20,3.6v-77.3c0-8.5,4.4-12.9,12.8-12.9h77.4
			c8.2,0,12.8,4.4,12.8,12.9V3.6c0,8.4-4.7,12.8-12.8,12.8H32.8z"/>
	</g>
	<g id="Ultralight-L" transform="matrix(1 0 0 1 488.739 1556)">
		<path d="M32,19.8h78c10.4,0,15.9-5.7,15.9-15.9v-77.9c0-10.2-5.6-15.9-15.9-15.9H32c-10.4,0-15.9,5.5-15.9,15.9V3.9
			C16.1,14.3,21.6,19.8,32,19.8z M32.1,17.2c-8.9,0-13.5-4.6-13.5-13.5v-77.7c0-8.9,4.6-13.5,13.5-13.5h77.6
			c8.6,0,13.5,4.6,13.5,13.5V3.8c0,8.9-4.9,13.5-13.5,13.5H32.1z"/>
	</g>
	<g id="Black-M" transform="matrix(1 0 0 1 2872.19 1126)">
		<path d="M32,13.6h58.4C102.7,13.6,110,6.3,110-6v-58.4c0-12.3-7.3-19.5-19.5-19.5H32c-12.3,0-19.5,7.3-19.5,19.5V-6
			C12.5,6.3,19.7,13.6,32,13.6z M34.9-4.7c-2.8,0-4.2-1.1-4.2-4.2v-52.6c0-3.1,1.3-4.2,4.2-4.2h52.6c2.8,0,4.2,1.1,4.2,4.2v52.6
			c0,3.1-1.3,4.2-4.2,4.2H34.9z"/>
	</g>
	<g id="Heavy-M" transform="matrix(1 0 0 1 2576.39 1126)">
		<path d="M31,12.6h58.6c11.8,0,18.5-6.7,18.5-18.5v-58.7c0-11.7-6.7-18.5-18.5-18.5H31c-11.8,0-18.6,6.7-18.6,18.5v58.7
			C12.5,5.9,19.2,12.6,31,12.6z M33.3-3.2c-3.3,0-5-1.5-5-5v-54.1c0-3.6,1.7-5,5-5h54.1c3.3,0,5,1.5,5,5v54.1c0,3.5-1.7,5-5,5H33.3z
			"/>
	</g>
	<g id="Bold-M" transform="matrix(1 0 0 1 2280.68 1126)">
		<path d="M29.9,11.7h58.8c11.2,0,17.4-6.2,17.4-17.3v-59c0-11.2-6.2-17.3-17.4-17.3H29.9c-11.2,0-17.4,6.2-17.4,17.3v59
			C12.5,5.5,18.7,11.7,29.9,11.7z M31.4-1.4c-3.9,0-5.9-1.9-5.9-5.9V-63c0-4.1,2-5.9,5.9-5.9h55.8c3.8,0,5.9,1.8,5.9,5.9v55.7
			c0,4.1-2.1,5.9-5.9,5.9H31.4z"/>
	</g>
	<g id="Semibold-M" transform="matrix(1 0 0 1 1984.65 1126)">
		<path d="M29.1,11h59c10.9,0,16.7-5.8,16.7-16.6v-59.3c0-10.7-5.8-16.5-16.7-16.5h-59c-10.8,0-16.7,5.8-16.7,16.5v59.3
			C12.5,5.2,18.3,11,29.1,11z M30.1-0.2c-4.2,0-6.5-2.1-6.5-6.6v-56.8c0-4.4,2.2-6.5,6.5-6.5h57c4.2,0,6.5,2.1,6.5,6.5v56.8
			c0,4.4-2.3,6.6-6.5,6.6H30.1z"/>
	</g>
	<g id="Medium-M" transform="matrix(1 0 0 1 1688.47 1126)">
		<path d="M28.5,10.4h59.1c10.6,0,16.1-5.5,16.1-15.9v-59.4c0-10.4-5.5-15.9-16.1-15.9H28.5c-10.5,0-16.1,5.4-16.1,15.9v59.4
			C12.5,5,18,10.4,28.5,10.4z M29.2,0.7c-4.5,0-7-2.3-7-7.1V-64c0-4.7,2.5-7.1,7-7.1H87c4.4,0,7,2.3,7,7.1v57.7c0,4.7-2.5,7.1-7,7.1
			H29.2z"/>
	</g>
	<g id="Regular-M" transform="matrix(1 0 0 1 1392.45 1126)">
		<path d="M47.2-7h-0.1c-2.7,0-4.2-1.1-4.2-3c0-1.4,0.8-2.2,2.5-2.5l0.3-0.1c2-0.3,2.7-1.4,2.7-3.6v-28.3c0-2.3,1.5-3.7,3.5-3.7
			c2.1,0,3.5,1.4,3.5,3.7v28.7C55.4-10.1,52.3-7,47.2-7z M51.9-51.7c2.2,0,3.9-1.7,3.9-3.8c0-2.2-1.7-3.8-3.9-3.8
			c-2.2,0-3.9,1.7-3.9,3.8C48-53.4,49.7-51.7,51.9-51.7z M73.2-22.1c-3.4,0-5.2-1-6.8-3.3c-0.9-1.2-1.9-1.7-3.1-1.7
			c-1.7,0-2.9,1.1-2.9,2.8c0,0.4,0.1,0.9,0.3,1.4c1.4,3.6,5.9,6,12.2,6c7.6,0,12.8-3.8,12.8-9.5c0-4.4-2.5-6.7-8.9-8.2l-4.8-1
			c-3.1-0.7-4.4-1.9-4.4-3.6c0-2.2,2.1-3.6,5.2-3.6c3,0,4.7,1.3,6.1,3.4c0.7,0.9,1.7,1.3,2.7,1.3c1.8,0,2.7-1,2.7-2.5
			c0-0.3-0.1-0.7-0.1-1c-0.9-3.5-5.4-6.3-11.2-6.3c-7.4,0-12.2,3.6-12.2,9.2c0,4.4,2.9,7.2,8.7,8.6l4.9,1.1c3.1,0.7,4.2,1.7,4.2,3.5
			C78.7-23.5,76.5-22.1,73.2-22.1z M87-80.5H27.8c-10.2,0-15.3,5-15.3,15.1v35.5c0,2.2,1.8,3.9,3.9,3.9s3.9-1.8,3.9-3.9V-65
			c0-5.1,2.7-7.7,7.6-7.7h59c4.8,0,7.6,2.6,7.6,7.7v58.8c0,5.1-2.7,7.7-7.6,7.7H51.3c-2.2,0-3.9,1.8-3.9,3.9s1.8,3.9,3.9,3.9H87
			c10.3,0,15.3-5.1,15.3-15.1v-59.6C102.3-75.4,97.3-80.5,87-80.5z M17.2,0c-2.6,0-4.7,2.1-4.7,4.7s2.1,4.7,4.7,4.7s4.7-2.1,4.7-4.7
			S19.8,0,17.2,0z"/>
	</g>
	<g id="Light-M" transform="matrix(1 0 0 1 1096.47 1126)">
		<path d="M26.9,9h59.6c9.5,0,14.4-4.9,14.4-14.3v-59.9c0-9.4-4.9-14.3-14.4-14.3H26.9c-9.5,0-14.4,4.8-14.4,14.3v59.9
			C12.5,4.2,17.3,9,26.9,9z M27,3c-5.5,0-8.4-2.9-8.4-8.5v-59.2c0-5.6,3-8.5,8.4-8.5h59.4c5.4,0,8.5,2.9,8.5,8.5v59.2
			c0,5.7-3.1,8.5-8.5,8.5H27z"/>
	</g>
	<g id="Thin-M" transform="matrix(1 0 0 1 800.758 1126)">
		<path d="M25.6,8.1h60.1c8.6,0,13.1-4.6,13.1-13.1v-60.2c0-8.5-4.5-13.1-13.1-13.1H25.6c-8.6,0-13.2,4.5-13.2,13.1V-5
			C12.5,3.6,17,8.1,25.6,8.1z M25.7,4.4c-6.3,0-9.7-3.3-9.7-9.7V-65c0-6.4,3.3-9.7,9.7-9.7h59.9c6.2,0,9.7,3.3,9.7,9.7v59.8
			c0,6.3-3.5,9.7-9.7,9.7H25.7z"/>
	</g>
	<g id="Ultralight-M" transform="matrix(1 0 0 1 504.535 1126)">
		<path d="M25,7.6h60.4c8.2,0,12.5-4.4,12.5-12.5v-60.3c0-8.1-4.4-12.5-12.5-12.5H25c-8.2,0-12.5,4.3-12.5,12.5V-5
			C12.5,3.2,16.8,7.6,25,7.6z M25.1,5.2c-6.7,0-10.3-3.5-10.3-10.3v-60.1c0-6.8,3.5-10.3,10.3-10.3h60.1c6.5,0,10.3,3.5,10.3,10.3
			v60.1c0,6.7-3.8,10.3-10.3,10.3H25.1z"/>
	</g>
	<g id="Black-S" transform="matrix(1 0 0 1 2885.5 696)">
		<path d="M25,2.9h45.8C80.4,2.9,86-2.7,86-12.3v-45.8c0-9.6-5.7-15.2-15.2-15.2H25c-9.6,0-15.2,5.7-15.2,15.2v45.8
			C9.8-2.7,15.4,2.9,25,2.9z M27.2-11.2c-2.2,0-3.3-0.9-3.3-3.3v-41.3c0-2.4,1.1-3.3,3.3-3.3h41.3c2.2,0,3.3,0.9,3.3,3.3v41.3
			c0,2.4-1.1,3.3-3.3,3.3H27.2z"/>
	</g>
	<g id="Heavy-S" transform="matrix(1 0 0 1 2589.4 696)">
		<path d="M24.4,2.3h45.9c9.3,0,14.6-5.3,14.6-14.6v-46c0-9.2-5.3-14.6-14.6-14.6H24.4c-9.3,0-14.6,5.3-14.6,14.6v46
			C9.8-3,15.1,2.3,24.4,2.3z M26.1-10.2c-2.5,0-3.8-1.1-3.8-3.9v-42.4c0-2.7,1.3-3.9,3.8-3.9h42.4c2.5,0,3.9,1.1,3.9,3.9V-14
			c0,2.7-1.3,3.9-3.9,3.9H26.1z"/>
	</g>
	<g id="Bold-S" transform="matrix(1 0 0 1 2293.35 696)">
		<path d="M23.6,1.7h46c9,0,13.9-4.9,13.9-13.8v-46.2c0-8.9-4.9-13.8-13.9-13.8h-46c-8.9,0-13.9,4.9-13.9,13.8v46.2
			C9.8-3.2,14.7,1.7,23.6,1.7z M24.8-8.9c-2.9,0-4.4-1.4-4.4-4.5V-57c0-3.1,1.6-4.5,4.4-4.5h43.7c2.9,0,4.4,1.4,4.4,4.5v43.6
			c0,3.1-1.6,4.5-4.4,4.5H24.8z"/>
	</g>
	<g id="Semibold-S" transform="matrix(1 0 0 1 1997.1 696)">
		<path d="M23.1,1.2h46.1c8.7,0,13.4-4.5,13.4-13.2v-46.4c0-8.6-4.6-13.2-13.4-13.2H23.1c-8.7,0-13.3,4.5-13.3,13.2V-12
			C9.8-3.4,14.4,1.2,23.1,1.2z M23.9-8.1c-3.1,0-4.8-1.6-4.8-4.9v-44.4c0-3.3,1.7-4.9,4.8-4.9h44.5c3.1,0,4.8,1.6,4.8,4.9V-13
			c0,3.3-1.7,4.9-4.8,4.9H23.9z"/>
	</g>
	<g id="Medium-S" transform="matrix(1 0 0 1 1700.75 696)">
		<path d="M22.7,0.8h46.2c8.5,0,12.9-4.3,12.9-12.8v-46.5c0-8.4-4.4-12.8-12.9-12.8H22.7c-8.5,0-12.9,4.3-12.9,12.8V-12
			C9.8-3.5,14.2,0.8,22.7,0.8z M23.2-7.5c-3.3,0-5.1-1.8-5.1-5.2v-45c0-3.5,1.9-5.2,5.1-5.2h45.2c3.3,0,5.1,1.8,5.1,5.2v45
			c0,3.5-1.9,5.2-5.1,5.2H23.2z"/>
	</g>
	<g id="Regular-S" transform="matrix(1 0 0 1 1404.51 696)">
		<path d="M22.2,0.4h46.2c8.3,0,12.5-4.1,12.5-12.3v-46.6c0-8.2-4.1-12.3-12.5-12.3H22.2c-8.3,0-12.5,4.1-12.5,12.3v46.6
			C9.8-3.7,13.9,0.4,22.2,0.4z M22.3-6.7c-3.5,0-5.5-1.9-5.5-5.6v-45.9c0-3.7,2-5.6,5.5-5.6h46c3.5,0,5.5,1.9,5.5,5.6v45.9
			c0,3.7-2,5.6-5.5,5.6H22.3z"/>
	</g>
	<g id="Light-S" transform="matrix(1 0 0 1 1108.46 696)">
		<path d="M21.4-0.3H68c7.8,0,11.6-3.9,11.6-11.5v-46.8c0-7.6-3.9-11.5-11.6-11.5H21.4c-7.7,0-11.6,3.9-11.6,11.5v46.8
			C9.8-4.2,13.7-0.3,21.4-0.3z M21.5-5.7c-4.1,0-6.3-2.1-6.3-6.3v-46.2c0-4.2,2.2-6.4,6.3-6.4h46.4c4,0,6.3,2.2,6.3,6.4v46.2
			c0,4.2-2.3,6.3-6.3,6.3H21.5z"/>
	</g>
	<g id="Thin-S" transform="matrix(1 0 0 1 812.599 696)">
		<path d="M20.3-1.1h47c6.9,0,10.5-3.7,10.5-10.5v-47.1c0-6.9-3.6-10.5-10.5-10.5h-47c-6.9,0-10.5,3.6-10.5,10.5v47.1
			C9.8-4.7,13.4-1.1,20.3-1.1z M20.4-4.4c-4.8,0-7.3-2.5-7.3-7.4v-46.7c0-4.8,2.5-7.4,7.3-7.4h46.8c4.6,0,7.3,2.5,7.3,7.4v46.7
			c0,4.9-2.7,7.4-7.3,7.4H20.4z"/>
	</g>
	<g id="Ultralight-S" transform="matrix(1 0 0 1 516.352 696)">
		<path d="M19.8-1.6H67c6.5,0,10-3.6,10-10v-47.3c0-6.4-3.4-10-10-10H19.8c-6.5,0-10,3.5-10,10v47.3C9.8-5,13.2-1.6,19.8-1.6z
			 M19.9-3.8c-5.2,0-7.9-2.7-7.9-7.9v-47c0-5.2,2.7-7.9,7.9-7.9h47c5,0,7.9,2.7,7.9,7.9v47c0,5.2-2.9,7.9-7.9,7.9H19.9z"/>
	</g>
</g>
</svg>
