<svg id="Group_182" data-name="Group 182" xmlns="http://www.w3.org/2000/svg" width="831.563" height="285.201" viewBox="0 0 831.563 285.201">
  <path id="Path_241" data-name="Path 241" d="M44.629,73.659H19.869V20.912H1.766V0H62.732V20.912h-18.1Z" transform="translate(-1.458)"/>
  <path id="Path_242" data-name="Path 242" d="M440.142,45.672H419.958V73.659H395.2V0h24.657V24.969h20.183V0H464.9V73.659H440.142Z" transform="translate(-326.33)"/>
  <path id="Path_243" data-name="Path 243" d="M874,0h50.665V20.6H897.3v6.346H923V46.192H897.3v6.867h29.131v20.6H874Z" transform="translate(-721.695)"/>
  <g id="Group_180" data-name="Group 180" transform="translate(0 80.813)">
    <path id="Path_244" data-name="Path 244" d="M33.912,531.7l1.768,64.289H0V482.194H50.04l20.6,61.234h.8L89.3,482.194h51.652v113.79H103.666l1.125-63.967-.964-.161L82.611,595.984h-27L34.716,531.7Z" transform="translate(0 -478.98)"/>
    <path id="Path_245" data-name="Path 245" d="M1026.654,523.216a62.6,62.6,0,0,1-4.822,24.912,56.243,56.243,0,0,1-13.339,19.205,59.886,59.886,0,0,1-20.091,12.3,74.6,74.6,0,0,1-50.146,0,59.044,59.044,0,0,1-20.011-12.3,56.78,56.78,0,0,1-13.257-19.205,62.609,62.609,0,0,1-4.822-24.912,60.9,60.9,0,0,1,4.822-24.673,54.869,54.869,0,0,1,13.257-18.723,59.049,59.049,0,0,1,20.011-11.893,77.318,77.318,0,0,1,50.146,0,59.9,59.9,0,0,1,20.091,11.893,54.366,54.366,0,0,1,13.339,18.723A60.892,60.892,0,0,1,1026.654,523.216Z" transform="translate(-743.302 -463.748)"/>
    <path id="Path_246" data-name="Path 246" d="M1718.243,482.194h49.021a83.117,83.117,0,0,1,16.636,1.687,42.112,42.112,0,0,1,14.786,5.947,32.287,32.287,0,0,1,10.527,11.411q4.013,7.154,4.017,17.921a32.2,32.2,0,0,1-19.874,30.7l28.875,46.127H1778.29l-21.8-40.663h-1.123v40.663h-37.126Zm36.8,48.055h7.5a30.68,30.68,0,0,0,4.225-.321,13.033,13.033,0,0,0,4.306-1.366,9.666,9.666,0,0,0,3.349-2.893,8.092,8.092,0,0,0,1.356-4.9,9,9,0,0,0-1.116-4.821,7.176,7.176,0,0,0-2.869-2.652,11.411,11.411,0,0,0-3.829-1.126,33.436,33.436,0,0,0-3.826-.24h-9.093Z" transform="translate(-1418.82 -478.98)"/>
    <path id="Path_247" data-name="Path 247" d="M2376.758,482.194h38.092l32.468,57.7h.64l-1.607-57.7h36.327v113.79h-39.06l-31.5-54.324h-.646l1.607,54.324h-36.322Z" transform="translate(-1962.583 -478.98)"/>
    <path id="Path_248" data-name="Path 248" d="M3106.288,482.194h38.572v113.79h-38.572Z" transform="translate(-2564.982 -478.98)"/>
    <path id="Path_249" data-name="Path 249" d="M3449.38,482.194h38.091l32.468,57.7h.639l-1.609-57.7h36.327v113.79h-39.057l-31.5-54.324h-.646l1.61,54.324h-36.32Z" transform="translate(-2848.285 -478.98)"/>
    <path id="Path_250" data-name="Path 250" d="M4212.4,583.647a72.665,72.665,0,0,1-24.992-4.179,58.335,58.335,0,0,1-19.923-11.974,55.488,55.488,0,0,1-13.26-18.884,65.919,65.919,0,0,1,0-49.5,56.96,56.96,0,0,1,13.174-18.965A58.418,58.418,0,0,1,4187,468.007a67.557,67.557,0,0,1,24.106-4.259,73.7,73.7,0,0,1,25.313,4.34,52.3,52.3,0,0,1,19.528,11.893l-22.33,26.841a27.341,27.341,0,0,0-8.366-6.67,25.715,25.715,0,0,0-11.895-2.492,23.362,23.362,0,0,0-9.079,1.849,23.6,23.6,0,0,0-7.8,5.3,27.215,27.215,0,0,0-5.46,8.277,26.824,26.824,0,0,0-2.088,10.768q0,11.9,6.188,19.367t19.848,7.474a32.14,32.14,0,0,0,4.985-.4,12.223,12.223,0,0,0,4.015-1.205v-8.679h-18.318V510.357h52.23v62.2a59.207,59.207,0,0,1-9.238,4.42,92.14,92.14,0,0,1-11.1,3.456,119.2,119.2,0,0,1-12.293,2.331A94.411,94.411,0,0,1,4212.4,583.647Z" transform="translate(-3426.32 -463.748)"/>
  </g>
  <path id="Path_251" data-name="Path 251" d="M1499.885,1228.97a39.739,39.739,0,0,1,3.122-16.021,36.838,36.838,0,0,1,8.529-12.277,37.731,37.731,0,0,1,12.745-7.855,44.18,44.18,0,0,1,15.659-2.756,46.948,46.948,0,0,1,16.126,2.756,37.361,37.361,0,0,1,12.692,7.439l-15.19,18.312a13.386,13.386,0,0,0-5.2-4.109,16.784,16.784,0,0,0-6.971-1.4,15.431,15.431,0,0,0-5.827,1.092,13.692,13.692,0,0,0-4.733,3.173,14.692,14.692,0,0,0-3.171,5.047,18.155,18.155,0,0,0-1.143,6.6,16.678,16.678,0,0,0,1.194,6.5,15.606,15.606,0,0,0,3.225,4.941,13.7,13.7,0,0,0,4.735,3.175,15.122,15.122,0,0,0,5.72,1.09,14.446,14.446,0,0,0,7.336-1.768,15.55,15.55,0,0,0,4.836-4.161l15.19,18.207a36.666,36.666,0,0,1-12.277,7.958,46.354,46.354,0,0,1-32.2.155,37.949,37.949,0,0,1-12.745-7.958,37.548,37.548,0,0,1-8.529-12.277A39.1,39.1,0,0,1,1499.885,1228.97Z" transform="translate(-1238.514 -982.678)"/>
  <path id="Path_252" data-name="Path 252" d="M1908.251,1228.554a39.393,39.393,0,0,1,3.124-15.968,35.477,35.477,0,0,1,8.582-12.121,38.189,38.189,0,0,1,12.953-7.7,50.064,50.064,0,0,1,32.459,0,38.756,38.756,0,0,1,13,7.7,35.132,35.132,0,0,1,8.636,12.121,39.434,39.434,0,0,1,3.121,15.968,40.554,40.554,0,0,1-3.121,16.125,36.4,36.4,0,0,1-8.636,12.434,38.748,38.748,0,0,1-13,7.958,48.3,48.3,0,0,1-32.459,0,38.185,38.185,0,0,1-12.953-7.958,36.773,36.773,0,0,1-8.582-12.434A40.512,40.512,0,0,1,1908.251,1228.554Zm26.323,0a19.373,19.373,0,0,0,1.094,6.659,15.965,15.965,0,0,0,3.014,5.2,13.174,13.174,0,0,0,4.632,3.383,14.234,14.234,0,0,0,5.827,1.195,13.726,13.726,0,0,0,10.4-4.578,15.576,15.576,0,0,0,3.069-5.2,19.514,19.514,0,0,0,1.09-6.659,18.749,18.749,0,0,0-1.09-6.5,14,14,0,0,0-3.069-4.994,14.3,14.3,0,0,0-10.4-4.318,14.784,14.784,0,0,0-5.827,1.145,13.57,13.57,0,0,0-4.632,3.173,14.32,14.32,0,0,0-3.014,4.994A18.613,18.613,0,0,0,1934.574,1228.554Z" transform="translate(-1575.716 -982.678)"/>
  <path id="Path_253" data-name="Path 253" d="M2459.753,1234.044l1.148,41.616h-23.1V1202h32.39l13.333,39.641h.522L2495.612,1202h33.43v73.66h-24.131l.726-41.408-.625-.1-13.733,41.511H2473.8l-13.526-41.616Z" transform="translate(-2012.991 -992.539)"/>
  <path id="Path_254" data-name="Path 254" d="M3064.257,1251.939v23.721H3039.6V1202h31.628a50.984,50.984,0,0,1,11.029,1.2,28.061,28.061,0,0,1,9.673,4.057,21.344,21.344,0,0,1,6.866,7.594,28.235,28.235,0,0,1,.055,23.566,22.334,22.334,0,0,1-6.765,7.8,27.936,27.936,0,0,1-9.672,4.369,46.358,46.358,0,0,1-11.187,1.352Zm0-30.691v11.86h5.2a9.8,9.8,0,0,0,5.15-1.4,5.072,5.072,0,0,0,2.342-4.733,5.743,5.743,0,0,0-.625-2.861,4.5,4.5,0,0,0-1.717-1.715,7.812,7.812,0,0,0-2.443-.885,14.361,14.361,0,0,0-2.707-.261Z" transform="translate(-2509.913 -992.539)"/>
  <path id="Path_255" data-name="Path 255" d="M3392.209,1202h26.317l28.715,73.66H3420.3l-3.85-10.822h-23.411l-3.636,10.822h-26.222Zm12.8,25.7-6.035,18.207h11.962Z" transform="translate(-2777.108 -992.539)"/>
  <path id="Path_256" data-name="Path 256" d="M3875.413,1202h24.661l21.014,37.351h.416L3920.465,1202h23.515v73.66H3918.7l-20.39-35.166h-.418l1.04,35.166h-23.515Z" transform="translate(-3200.077 -992.539)"/>
  <path id="Path_257" data-name="Path 257" d="M4346.456,1275.66h-24.762v-30.17L4293.917,1202h29.857l11.654,21.641L4346.562,1202h29.129l-29.234,43.489Z" transform="translate(-3545.656 -992.539)"/>
</svg>
