<?xml version="1.0" encoding="utf-8"?>
<!-- Generator: Adobe Illustrator 25.1.0, SVG Export Plug-In . SVG Version: 6.00 Build 0)  -->
<svg version="1.1" id="Layer_1" xmlns="http://www.w3.org/2000/svg" xmlns:xlink="http://www.w3.org/1999/xlink" x="0px" y="0px"
	 viewBox="0 0 237.6 237.6" style="enable-background:new 0 0 237.6 237.6;" xml:space="preserve">
<style type="text/css">
	.st0{fill:#F4F4F4;}
</style>
<path id="Path_519" class="st0" d="M154.3,148.6l-16.1-16.1c11.9-15.1,9.4-37-5.7-48.9s-36.9-9.4-48.9,5.7s-9.4,36.9,5.7,48.9
	c12.7,10,30.6,10,43.2,0l16.1,16.1c1.6,1.6,4.1,1.6,5.7,0l0,0l0,0C155.8,152.7,155.8,150.2,154.3,148.6z M84.2,110.9
	c0-14.7,12-26.7,26.7-26.7c14.8,0,26.7,12,26.7,26.7c0,14.8-12,26.7-26.7,26.7l0,0C96.2,137.7,84.2,125.7,84.2,110.9L84.2,110.9z"/>
</svg>
