<?xml version="1.0" encoding="utf-8"?>
<!-- Generator: Adobe Illustrator 25.1.0, SVG Export Plug-In . SVG Version: 6.00 Build 0)  -->
<svg version="1.1" id="Layer_1" xmlns="http://www.w3.org/2000/svg" xmlns:xlink="http://www.w3.org/1999/xlink" x="0px" y="0px"
	 viewBox="0 0 79.2 79.2" style="enable-background:new 0 0 79.2 79.2;" xml:space="preserve">
<style type="text/css">
	.st0{fill:#F4F4F4;}
</style>
<path id="Path_519" class="st0" d="M78.1,72.4L62,56.3c11.9-15.1,9.4-37-5.7-48.9C41.2-4.5,19.4-2,7.4,13.1S-2,50,13.1,62
	c12.7,10,30.6,10,43.2,0l16.1,16.1c1.6,1.6,4.1,1.6,5.7,0c0,0,0,0,0,0l0,0C79.6,76.5,79.6,74,78.1,72.4z M8,34.7C8,20,20,8,34.7,8
	c14.8,0,26.7,12,26.7,26.7c0,14.8-12,26.7-26.7,26.7c0,0,0,0,0,0C20,61.5,8,49.5,8,34.7L8,34.7z"/>
</svg>
