<?xml version="1.0" encoding="utf-8"?>
<!-- Generator: Adobe Illustrator 25.1.0, SVG Export Plug-In . SVG Version: 6.00 Build 0)  -->
<svg version="1.1" id="Layer_1" xmlns="http://www.w3.org/2000/svg" xmlns:xlink="http://www.w3.org/1999/xlink" x="0px" y="0px"
	 viewBox="0 0 3300 2200" style="enable-background:new 0 0 3300 2200;" xml:space="preserve">
<style type="text/css">
	.st0{fill:#FFFFFF;}
	.st1{fill:none;stroke:#000000;stroke-width:0.5;}
	.st2{enable-background:new    ;}
	.st3{font-family:'MyriadPro-Regular';}
	.st4{font-size:12px;}
	.st5{font-family:'ArialHebrew-Bold';}
	.st6{font-family:'ArialHebrew';}
	.st7{fill:none;stroke:#00AEEF;stroke-width:0.5;}
	.st8{fill:#27AAE1;}
	.st9{fill:none;stroke:#27AAE1;stroke-width:0.5;}
</style>
<g id="Notes">
	<rect id="artboard" class="st0" width="3300" height="2200"/>
	<line class="st1" x1="263" y1="292" x2="3036" y2="292"/>
	<text transform="matrix(1 0 0 1 263 322)" class="st2"><tspan x="0" y="0" class="st3 st4">Weight</tspan><tspan x="36.3" y="0" class="st5 st4">/</tspan><tspan x="40.2" y="0" class="st3 st4">Scale</tspan><tspan x="66.1" y="0" class="st5 st4"> </tspan><tspan x="69.5" y="0" class="st3 st4">Variations</tspan></text>
	<text transform="matrix(1 0 0 1 514.711 322)" class="st3 st4">Ultralight</text>
	<text transform="matrix(1 0 0 1 838.422 322)" class="st3 st4">Thin</text>
	<text transform="matrix(1 0 0 1 1130.63 322)" class="st3 st4">Light</text>
	<text transform="matrix(1 0 0 1 1418.34 322)" class="st3 st4">Regular</text>
	<text transform="matrix(1 0 0 1 1719.5601 322)" class="st3 st4">Medium</text>
	<text transform="matrix(1 0 0 1 2007.27 322)" class="st3 st4">Semibold</text>
	<text transform="matrix(1 0 0 1 2321.98 322)" class="st3 st4">Bold</text>
	<text transform="matrix(1 0 0 1 2614.1899 322)" class="st3 st4">Heavy</text>
	<text transform="matrix(1 0 0 1 2910.8999 322)" class="st3 st4">Black</text>
	<line class="st1" x1="263" y1="1903" x2="3036" y2="1903"/>
	<g transform="matrix(1 0 0 1 263 1933)">
		<path d="M9.2,0.8c4.3,0,7.9-3.6,7.9-7.9c0-4.3-3.6-7.9-7.9-7.9c-4.3,0-7.9,3.6-7.9,7.9C1.4-2.7,5,0.8,9.2,0.8z M9.2-0.7
			c-3.5,0-6.4-2.8-6.4-6.4c0-3.6,2.8-6.4,6.4-6.4c3.6,0,6.4,2.8,6.4,6.4C15.7-3.5,12.8-0.7,9.2-0.7z M6.4-6.3h2.1v2.1
			c0,0.4,0.3,0.7,0.7,0.7c0.4,0,0.7-0.3,0.7-0.7v-2.1h2.1c0.4,0,0.7-0.3,0.7-0.7c0-0.4-0.3-0.7-0.7-0.7H10v-2.1
			c0-0.4-0.3-0.8-0.7-0.8c-0.4,0-0.7,0.3-0.7,0.8v2.1H6.4C5.9-7.8,5.6-7.5,5.6-7C5.6-6.6,5.9-6.3,6.4-6.3z"/>
	</g>
	<g transform="matrix(1 0 0 1 281.506 1933)">
		<path d="M11.7,2.9c5.4,0,10-4.5,10-10c0-5.4-4.5-10-10-10c-5.4,0-10,4.5-10,10C1.7-1.6,6.3,2.9,11.7,2.9z M11.7,1.2
			c-4.6,0-8.3-3.7-8.3-8.3c0-4.6,3.7-8.3,8.3-8.3c4.6,0,8.3,3.7,8.3,8.3C20-2.4,16.3,1.2,11.7,1.2z M8-6.2h2.9v2.9
			c0,0.5,0.3,0.8,0.8,0.8c0.5,0,0.8-0.3,0.8-0.8v-2.9h2.9c0.5,0,0.8-0.3,0.8-0.8c0-0.5-0.3-0.8-0.8-0.8h-2.9v-2.9
			c0-0.5-0.3-0.8-0.8-0.8c-0.5,0-0.8,0.3-0.8,0.8v2.9H8C7.5-7.9,7.1-7.5,7.1-7C7.1-6.6,7.5-6.2,8-6.2z"/>
	</g>
	<g transform="matrix(1 0 0 1 304.924 1933)">
		<path d="M15,5.7c7,0,12.7-5.8,12.7-12.7c0-7-5.8-12.7-12.7-12.7C8-19.8,2.3-14,2.3-7.1C2.3-0.1,8,5.7,15,5.7z M15,3.8
			C8.9,3.8,4.1-1,4.1-7.1c0-6,4.8-10.9,10.9-10.9c6,0,10.9,4.9,10.9,10.9C25.9-1,21,3.8,15,3.8z M10.1-6.1h4v4
			c0,0.5,0.4,0.9,0.9,0.9c0.5,0,0.9-0.4,0.9-0.9v-4h4c0.5,0,0.9-0.4,0.9-0.9c0-0.5-0.4-0.9-0.9-0.9h-4v-4c0-0.6-0.4-0.9-0.9-0.9
			c-0.5,0-0.9,0.4-0.9,0.9v4h-4C9.5-7.9,9.1-7.6,9.1-7C9.1-6.5,9.5-6.1,10.1-6.1z"/>
	</g>
	<text transform="matrix(1 0 0 1 263 1953)" class="st2"><tspan x="0" y="0" class="st3 st4">Design</tspan><tspan x="34.9" y="0" class="st5 st4"> </tspan><tspan x="38.3" y="0" class="st3 st4">Variations</tspan></text>
	<text transform="matrix(1 0 0 1 263 1971)" class="st2"><tspan x="0" y="0" class="st3 st4">Symbols</tspan><tspan x="42.6" y="0" class="st6 st4"> </tspan><tspan x="45.9" y="0" class="st3 st4">are</tspan><tspan x="61.6" y="0" class="st6 st4"> </tspan><tspan x="65" y="0" class="st3 st4">supported</tspan><tspan x="117.3" y="0" class="st6 st4"> </tspan><tspan x="120.6" y="0" class="st3 st4">in</tspan><tspan x="130.1" y="0" class="st6 st4"> </tspan><tspan x="133.4" y="0" class="st3 st4">up</tspan><tspan x="146.8" y="0" class="st6 st4"> </tspan><tspan x="150.2" y="0" class="st3 st4">to</tspan><tspan x="160.7" y="0" class="st6 st4"> </tspan><tspan x="164.1" y="0" class="st3 st4">nine</tspan><tspan x="186.2" y="0" class="st6 st4"> </tspan><tspan x="189.5" y="0" class="st3 st4">weights</tspan><tspan x="229.3" y="0" class="st6 st4"> </tspan><tspan x="232.6" y="0" class="st3 st4">and</tspan><tspan x="251.8" y="0" class="st6 st4"> </tspan><tspan x="255.2" y="0" class="st3 st4">three</tspan><tspan x="281.7" y="0" class="st6 st4"> </tspan><tspan x="285.1" y="0" class="st3 st4">scales</tspan><tspan x="314.6" y="0" class="st6 st4">.</tspan></text>
	<text transform="matrix(1 0 0 1 263 1989)" class="st2"><tspan x="0" y="0" class="st3 st4">For</tspan><tspan x="16.4" y="0" class="st6 st4"> </tspan><tspan x="19.7" y="0" class="st3 st4">optimal</tspan><tspan x="58.5" y="0" class="st6 st4"> </tspan><tspan x="61.8" y="0" class="st3 st4">layout</tspan><tspan x="93.3" y="0" class="st6 st4"> </tspan><tspan x="96.6" y="0" class="st3 st4">with</tspan><tspan x="118.9" y="0" class="st6 st4"> </tspan><tspan x="122.2" y="0" class="st3 st4">text</tspan><tspan x="141.7" y="0" class="st6 st4"> </tspan><tspan x="145.1" y="0" class="st3 st4">and</tspan><tspan x="164.3" y="0" class="st6 st4"> </tspan><tspan x="167.6" y="0" class="st3 st4">other</tspan><tspan x="194.8" y="0" class="st6 st4"> </tspan><tspan x="198.1" y="0" class="st3 st4">symbols</tspan><tspan x="239.5" y="0" class="st6 st4">, </tspan><tspan x="245.4" y="0" class="st3 st4">vertically</tspan><tspan x="290.4" y="0" class="st6 st4"> </tspan><tspan x="293.7" y="0" class="st3 st4">align</tspan></text>
	<text transform="matrix(1 0 0 1 263 2007)" class="st2"><tspan x="0" y="0" class="st3 st4">symbols</tspan><tspan x="41.4" y="0" class="st6 st4"> </tspan><tspan x="44.7" y="0" class="st3 st4">with</tspan><tspan x="67" y="0" class="st6 st4"> </tspan><tspan x="70.4" y="0" class="st3 st4">the</tspan><tspan x="87" y="0" class="st6 st4"> </tspan><tspan x="90.3" y="0" class="st3 st4">adjacent</tspan><tspan x="133.6" y="0" class="st6 st4"> </tspan><tspan x="136.9" y="0" class="st3 st4">text</tspan><tspan x="156.5" y="0" class="st6 st4">.</tspan></text>
	<line class="st7" x1="776" y1="1919" x2="776" y2="1933"/>
	<g transform="matrix(1 0 0 1 776 1933)">
		<path d="M3.3,0.1c0.5,0,0.8-0.2,1-0.7l1.3-3.5h5.8l1.3,3.5c0.2,0.5,0.4,0.7,0.9,0.7c0.5,0,0.8-0.3,0.8-0.8c0-0.2,0-0.3-0.1-0.5
			L9.7-13.4C9.4-14,9-14.3,8.4-14.3c-0.6,0-1,0.3-1.2,0.9L2.6-1.2C2.5-1,2.5-0.8,2.5-0.7C2.5-0.2,2.8,0.1,3.3,0.1z M6-5.5l2.4-6.6h0
			l2.4,6.6H6z"/>
	</g>
	<line class="st7" x1="792.8" y1="1919" x2="792.8" y2="1933"/>
	<text transform="matrix(1 0 0 1 776 1953)" class="st3 st4">Margins</text>
	<text transform="matrix(1 0 0 1 776 1971)" class="st2"><tspan x="0" y="0" class="st3 st4">Leading</tspan><tspan x="40.4" y="0" class="st6 st4"> </tspan><tspan x="43.7" y="0" class="st3 st4">and</tspan><tspan x="63" y="0" class="st6 st4"> </tspan><tspan x="66.3" y="0" class="st3 st4">trailing</tspan><tspan x="101.8" y="0" class="st6 st4"> </tspan><tspan x="105.1" y="0" class="st3 st4">margins</tspan><tspan x="145.8" y="0" class="st6 st4"> </tspan><tspan x="149.1" y="0" class="st3 st4">on</tspan><tspan x="162.3" y="0" class="st6 st4"> </tspan><tspan x="165.7" y="0" class="st3 st4">the</tspan><tspan x="182.3" y="0" class="st6 st4"> </tspan><tspan x="185.7" y="0" class="st3 st4">left</tspan><tspan x="202" y="0" class="st6 st4"> </tspan><tspan x="205.3" y="0" class="st3 st4">and</tspan><tspan x="224.5" y="0" class="st6 st4"> </tspan><tspan x="227.9" y="0" class="st3 st4">right</tspan><tspan x="251.9" y="0" class="st6 st4"> </tspan><tspan x="255.3" y="0" class="st3 st4">side</tspan><tspan x="275.6" y="0" class="st6 st4"> </tspan><tspan x="278.9" y="0" class="st3 st4">of</tspan><tspan x="289" y="0" class="st6 st4"> </tspan><tspan x="292.4" y="0" class="st3 st4">each</tspan><tspan x="316.2" y="0" class="st6 st4"> </tspan><tspan x="319.5" y="0" class="st3 st4">symbol</tspan></text>
	<text transform="matrix(1 0 0 1 776 1989)" class="st2"><tspan x="0" y="0" class="st3 st4">can</tspan><tspan x="17.8" y="0" class="st6 st4"> </tspan><tspan x="21.2" y="0" class="st3 st4">be</tspan><tspan x="34" y="0" class="st6 st4"> </tspan><tspan x="37.3" y="0" class="st3 st4">adjusted</tspan><tspan x="80.9" y="0" class="st6 st4"> </tspan><tspan x="84.3" y="0" class="st3 st4">by</tspan><tspan x="96.7" y="0" class="st6 st4"> </tspan><tspan x="100.1" y="0" class="st3 st4">modifying</tspan><tspan x="151.6" y="0" class="st6 st4"> </tspan><tspan x="154.9" y="0" class="st3 st4">the</tspan><tspan x="171.5" y="0" class="st6 st4"> </tspan><tspan x="174.9" y="0" class="st3 st4">x</tspan><tspan x="180.4" y="0" class="st6 st4">-</tspan><tspan x="184.6" y="0" class="st3 st4">location</tspan><tspan x="225.2" y="0" class="st6 st4"> </tspan><tspan x="228.6" y="0" class="st3 st4">of</tspan><tspan x="238.7" y="0" class="st6 st4"> </tspan><tspan x="242" y="0" class="st3 st4">the</tspan><tspan x="258.6" y="0" class="st6 st4"> </tspan><tspan x="262" y="0" class="st3 st4">margin</tspan><tspan x="297.9" y="0" class="st6 st4"> </tspan><tspan x="301.2" y="0" class="st3 st4">guidelines</tspan><tspan x="353.2" y="0" class="st6 st4">.</tspan></text>
	<text transform="matrix(1 0 0 1 776 2007)" class="st2"><tspan x="0" y="0" class="st3 st4">Modifications</tspan><tspan x="68" y="0" class="st6 st4"> </tspan><tspan x="71.4" y="0" class="st3 st4">are</tspan><tspan x="87.1" y="0" class="st6 st4"> </tspan><tspan x="90.4" y="0" class="st3 st4">automatically</tspan><tspan x="158.4" y="0" class="st6 st4"> </tspan><tspan x="161.8" y="0" class="st3 st4">applied</tspan><tspan x="199.6" y="0" class="st6 st4"> </tspan><tspan x="203" y="0" class="st3 st4">proportionally</tspan><tspan x="274.8" y="0" class="st6 st4"> </tspan><tspan x="278.1" y="0" class="st3 st4">to</tspan><tspan x="288.7" y="0" class="st6 st4"> </tspan><tspan x="292" y="0" class="st3 st4">all</tspan></text>
	<text transform="matrix(1 0 0 1 776 2025)" class="st2"><tspan x="0" y="0" class="st3 st4">scales</tspan><tspan x="29.5" y="0" class="st6 st4"> </tspan><tspan x="32.8" y="0" class="st3 st4">and</tspan><tspan x="52.1" y="0" class="st6 st4"> </tspan><tspan x="55.4" y="0" class="st3 st4">weights</tspan><tspan x="95.1" y="0" class="st6 st4">.</tspan></text>
	<g transform="matrix(1 0 0 1 1289 1933)">
		<path d="M2.8,1.9l1.7,1.7c0.9,0.9,1.8,0.8,2.8-0.2L17.5-7.9c0.3,0.1,0.5,0.1,0.8,0L19.4-8l0.7,0.7l0,0.6c0,0.5,0.1,0.9,0.6,1.4
			l0.8,0.7c0.5,0.5,1.1,0.5,1.6,0l2.9-2.9c0.5-0.5,0.4-1.1,0-1.5L25-9.9c-0.5-0.5-0.8-0.6-1.3-0.6l-0.6,0l-0.6-0.6l0.2-1.1
			c0.1-0.6,0-1-0.6-1.6L19.9-16c-3.3-3.3-7.8-3.2-10.7-0.4c-0.4,0.4-0.4,1-0.2,1.4c0.2,0.4,0.7,0.6,1.3,0.4c1.5-0.3,3-0.4,4.4,0.5
			l-0.6,1.5c-0.2,0.5-0.2,0.9-0.1,1.2L3-0.9C2.1,0,2,1,2.8,1.9z M10.8-16c2.4-1.8,5.7-1.5,7.9,0.8l2.4,2.4c0.2,0.2,0.3,0.4,0.2,0.8
			L21-10.5l1.5,1.5l1-0.1c0.3,0,0.3,0,0.5,0.2l0.6,0.6l-2.4,2.4l-0.6-0.6c-0.2-0.2-0.2-0.3-0.2-0.5l0.1-1L20-9.5l-1.5,0.3
			c-0.3,0.1-0.5,0-0.7-0.2l-2-2c-0.3-0.2-0.3-0.4-0.1-0.8l0.9-2.1c-1.6-1.5-3.6-2.1-5.6-1.5C10.7-15.7,10.6-15.8,10.8-16z M5.3,2.3
			L4.1,1.1C3.6,0.7,3.7,0.3,4.1,0L15-10.2l1.5,1.5l-10,11C6.1,2.7,5.7,2.8,5.3,2.3z"/>
	</g>
	<text transform="matrix(1 0 0 1 1289 1953)" class="st3 st4">Exporting</text>
	<text transform="matrix(1 0 0 1 1289 1971)" class="st2"><tspan x="0" y="0" class="st3 st4">Symbols</tspan><tspan x="42.6" y="0" class="st6 st4"> </tspan><tspan x="45.9" y="0" class="st3 st4">should</tspan><tspan x="80.1" y="0" class="st6 st4"> </tspan><tspan x="83.5" y="0" class="st3 st4">be</tspan><tspan x="96.3" y="0" class="st6 st4"> </tspan><tspan x="99.6" y="0" class="st3 st4">outlined</tspan><tspan x="141.9" y="0" class="st6 st4"> </tspan><tspan x="145.2" y="0" class="st3 st4">when</tspan><tspan x="173.4" y="0" class="st6 st4"> </tspan><tspan x="176.7" y="0" class="st3 st4">exporting</tspan><tspan x="225.8" y="0" class="st6 st4"> </tspan><tspan x="229.1" y="0" class="st3 st4">to</tspan><tspan x="239.7" y="0" class="st6 st4"> </tspan><tspan x="243" y="0" class="st3 st4">ensure</tspan><tspan x="277" y="0" class="st6 st4"> </tspan><tspan x="280.3" y="0" class="st3 st4">the</tspan></text>
	<text transform="matrix(1 0 0 1 1289 1989)" class="st2"><tspan x="0" y="0" class="st3 st4">design</tspan><tspan x="33.7" y="0" class="st6 st4"> </tspan><tspan x="37" y="0" class="st3 st4">is</tspan><tspan x="44.6" y="0" class="st6 st4"> </tspan><tspan x="47.9" y="0" class="st3 st4">preserved</tspan><tspan x="97.9" y="0" class="st6 st4"> </tspan><tspan x="101.3" y="0" class="st3 st4">when</tspan><tspan x="129.4" y="0" class="st6 st4"> </tspan><tspan x="132.8" y="0" class="st3 st4">submitting</tspan><tspan x="187.9" y="0" class="st6 st4"> </tspan><tspan x="191.2" y="0" class="st3 st4">to</tspan><tspan x="201.8" y="0" class="st6 st4"> </tspan><tspan x="205.1" y="0" class="st3 st4">Xcode</tspan><tspan x="236.7" y="0" class="st6 st4">.</tspan></text>
	<text id="template-version" transform="matrix(1 0 0 1 2934.9604 1933)" class="st2"><tspan x="0" y="0" class="st3 st4">Template</tspan><tspan x="47.4" y="0" class="st6 st4"> </tspan><tspan x="50.7" y="0" class="st3 st4">v</tspan><tspan x="56.5" y="0" class="st6 st4">.2.0</tspan></text>
	<text transform="matrix(1 0 0 1 2812.9443 1951)" class="st2"><tspan x="0" y="0" class="st3 st4">Requires</tspan><tspan x="43.3" y="0" class="st6 st4"> </tspan><tspan x="46.7" y="0" class="st3 st4">Xcode</tspan><tspan x="78.3" y="0" class="st6 st4"> 12 </tspan><tspan x="96.6" y="0" class="st3 st4">or</tspan><tspan x="107.2" y="0" class="st6 st4"> </tspan><tspan x="110.5" y="0" class="st3 st4">greater</tspan></text>
	<text transform="matrix(1 0 0 1 2858.3281 1969)" class="st2"><tspan x="0" y="0" class="st3 st4">Generated</tspan><tspan x="52.9" y="0" class="st6 st4"> </tspan><tspan x="56.2" y="0" class="st3 st4">from</tspan><tspan x="80.3" y="0" class="st6 st4"> </tspan><tspan x="83.6" y="0" class="st3 st4">circle</tspan></text>
	<text transform="matrix(1 0 0 1 2873.4243 1987)" class="st2"><tspan x="0" y="0" class="st3 st4">Typeset</tspan><tspan x="39.2" y="0" class="st6 st4"> </tspan><tspan x="42.5" y="0" class="st3 st4">at</tspan><tspan x="52.3" y="0" class="st6 st4"> 100 </tspan><tspan x="76.5" y="0" class="st3 st4">points</tspan></text>
	<text transform="matrix(1 0 0 1 263 726)" class="st3 st4">Small</text>
	<text transform="matrix(1 0 0 1 263 1156)" class="st3 st4">Medium</text>
	<text transform="matrix(1 0 0 1 263 1586)" class="st3 st4">Large</text>
</g>
<g id="Guides">
	<g id="H-reference" transform="matrix(1 0 0 1 339 696)">
		<path class="st8" d="M1,0h2.7L13-24.5h32.8L55.1,0h2.6L30.6-70.5h-2.5L1,0z M29.3-67.1L29.3-67.1l15.5,40.4h-31L29.3-67.1z"/>
	</g>
	<line id="Baseline-S" class="st9" x1="263" y1="696" x2="3036" y2="696"/>
	<line id="Capline-S" class="st9" x1="263" y1="625.5" x2="3036" y2="625.5"/>
	<g id="H-reference_1_" transform="matrix(1 0 0 1 339 1126)">
		<path class="st8" d="M1,0h2.7L13-24.5h32.8L55.1,0h2.6L30.6-70.5h-2.5L1,0z M29.3-67.1L29.3-67.1l15.5,40.4h-31L29.3-67.1z"/>
	</g>
	<line id="Baseline-M" class="st9" x1="263" y1="1126" x2="3036" y2="1126"/>
	<line id="Capline-M" class="st9" x1="263" y1="1055.5" x2="3036" y2="1055.5"/>
	<g id="H-reference_2_" transform="matrix(1 0 0 1 339 1556)">
		<path class="st8" d="M1,0h2.7L13-24.5h32.8L55.1,0h2.6L30.6-70.5h-2.5L1,0z M29.3-67.1L29.3-67.1l15.5,40.4h-31L29.3-67.1z"/>
	</g>
	<line id="Baseline-L" class="st9" x1="263" y1="1556" x2="3036" y2="1556"/>
	<line id="Capline-L" class="st9" x1="263" y1="1485.5" x2="3036" y2="1485.5"/>
	<line id="left-margin" class="st7" x1="1391.3" y1="1030.8" x2="1391.3" y2="1150.1"/>
	<line id="right-margin" class="st7" x1="1508.4" y1="1030.8" x2="1508.4" y2="1150.1"/>
</g>
<g id="Symbols">
	<g id="Black-L" transform="matrix(1 0 0 1 2854.05 1556)">
		<path d="M79.3,32.9c37.4,0,68.1-30.7,68.1-68.1c0-37.4-30.7-68.1-68.1-68.1c-37.4,0-68,30.7-68,68.1C11.3,2.2,41.9,32.9,79.3,32.9
			z M79.3,12.4C53,12.4,31.7-8.8,31.7-35.2s21.2-47.6,47.6-47.6c26.4,0,47.7,21.2,47.7,47.6C127-8.8,105.7,12.4,79.3,12.4z"/>
	</g>
	<g id="Heavy-L" transform="matrix(1 0 0 1 2558.39 1556)">
		<path d="M78.3,31.8c36.8,0,67-30.2,67-67c0-36.8-30.3-67-67-67c-36.8,0-67,30.2-67,67C11.3,1.6,41.5,31.8,78.3,31.8z M78.3,14
			C51,14,29.1-8,29.1-35.2c0-27.3,21.9-49.3,49.2-49.3c27.2,0,49.2,22,49.3,49.3C127.5-8,105.6,14,78.3,14z"/>
	</g>
	<g id="Bold-L" transform="matrix(1 0 0 1 2262.88 1556)">
		<path d="M77.1,30.6c36.1,0,65.8-29.7,65.8-65.8c0-36.1-29.7-65.8-65.9-65.8c-36.1,0-65.8,29.7-65.8,65.8
			C11.3,0.9,41,30.6,77.1,30.6z M77.1,15.8c-28.3,0-51-22.8-51-51.1s22.7-51,51-51c28.3,0,51.1,22.8,51.1,51
			C128.2-7,105.4,15.8,77.1,15.8z"/>
	</g>
	<g id="Semibold-L" transform="matrix(1 0 0 1 1966.97 1556)">
		<path d="M76.3,29.7c35.6,0,65-29.3,65-65s-29.4-65-65-65c-35.6,0-65,29.3-65,65S40.7,29.7,76.3,29.7z M76.3,17
			C47.3,17,24-6.2,24-35.3c0-29,23.2-52.3,52.2-52.3c29,0,52.3,23.3,52.3,52.3C128.7-6.2,105.3,17,76.3,17z"/>
	</g>
	<g id="Medium-L" transform="matrix(1 0 0 1 1670.87 1556)">
		<path d="M75.7,29.2c35.3,0,64.4-29.2,64.4-64.4s-29.2-64.4-64.5-64.4c-35.3,0-64.4,29.2-64.4,64.4S40.4,29.2,75.7,29.2z M75.7,18
			C46.1,18,22.5-5.8,22.5-35.3s23.7-53.3,53.2-53.3s53.3,23.8,53.3,53.3C129-5.8,105.2,18,75.7,18z"/>
	</g>
	<g id="Regular-L" transform="matrix(1 0 0 1 1374.97 1556)">
		<path d="M74.9,28.3c34.8,0,63.6-28.8,63.6-63.6c0-34.8-28.9-63.6-63.7-63.6c-34.8,0-63.5,28.8-63.5,63.6
			C11.3-0.5,40.1,28.3,74.9,28.3z M74.9,19.2c-30.2,0-54.4-24.3-54.4-54.5c0-30.2,24.2-54.5,54.4-54.5c30.2,0,54.5,24.3,54.5,54.5
			C129.4-5.1,105.1,19.2,74.9,19.2z"/>
	</g>
	<g id="Light-L" transform="matrix(1 0 0 1 1079.18 1556)">
		<path d="M73.9,27.4c34.4,0,62.7-28.3,62.7-62.6c0-34.4-28.4-62.7-62.7-62.7c-34.4,0-62.6,28.3-62.6,62.7
			C11.3-0.9,39.6,27.4,73.9,27.4z M73.9,20.5c-30.8,0-55.7-25-55.7-55.8C18.2-66.1,43.1-91,73.9-91c30.8,0,55.8,24.9,55.8,55.8
			C129.7-4.4,104.8,20.5,73.9,20.5z"/>
	</g>
	<g id="Thin-L" transform="matrix(1 0 0 1 783.693 1556)">
		<path d="M72.7,26.2c33.8,0,61.5-27.7,61.5-61.4c0-33.8-27.7-61.5-61.5-61.5C39-96.7,11.3-69,11.3-35.3C11.3-1.5,39,26.2,72.7,26.2
			z M72.7,22.2C41,22.2,15.3-3.6,15.3-35.3C15.3-67,41-92.7,72.7-92.7c31.7,0,57.5,25.7,57.5,57.5C130.2-3.6,104.4,22.2,72.7,22.2z"
			/>
	</g>
	<g id="Ultralight-L" transform="matrix(1 0 0 1 487.616 1556)">
		<path d="M72.1,25.5c33.4,0,60.8-27.3,60.8-60.8c0-33.5-27.3-60.8-60.8-60.8c-33.5,0-60.8,27.3-60.8,60.8
			C11.3-1.8,38.6,25.5,72.1,25.5z M72.1,23C39.9,23,13.8-3.1,13.8-35.3c0-32.2,26.2-58.3,58.3-58.3c32.1,0,58.3,26.2,58.3,58.3
			C130.4-3.1,104.2,23,72.1,23z"/>
	</g>
	<g id="Black-M" transform="matrix(1 0 0 1 2870.97 1126)">
		<path d="M62.4,18.5c29.6,0,53.7-24.1,53.7-53.7c0-29.6-24.1-53.7-53.7-53.7c-29.6,0-53.7,24.1-53.7,53.7
			C8.7-5.6,32.8,18.5,62.4,18.5z M62.4,0.2C42.9,0.2,27-15.6,27-35.2c0-19.5,15.9-35.4,35.4-35.4c19.6,0,35.4,15.9,35.4,35.4
			C97.8-15.6,82,0.2,62.4,0.2z"/>
	</g>
	<g id="Heavy-M" transform="matrix(1 0 0 1 2575.19 1126)">
		<path d="M61.5,17.5c29,0,52.7-23.7,52.7-52.7c0-29.1-23.7-52.8-52.8-52.8c-29,0-52.7,23.7-52.7,52.8C8.7-6.2,32.5,17.5,61.5,17.5z
			 M61.5,1.6c-20.4,0-36.9-16.5-36.9-36.8c0-20.4,16.5-36.9,36.8-36.9c20.4,0,36.9,16.5,36.9,36.9C98.3-14.8,81.9,1.6,61.5,1.6z"/>
	</g>
	<g id="Bold-M" transform="matrix(1 0 0 1 2279.5 1126)">
		<path d="M60.5,16.5c28.4,0,51.7-23.3,51.7-51.7c0-28.4-23.3-51.8-51.8-51.8S8.7-63.6,8.7-35.2C8.7-6.8,32.1,16.5,60.5,16.5z
			 M60.5,3.2c-21.3,0-38.4-17.1-38.4-38.4c0-21.3,17.1-38.5,38.4-38.5c21.3,0,38.5,17.1,38.5,38.5C99-13.9,81.8,3.2,60.5,3.2z"/>
	</g>
	<g id="Semibold-M" transform="matrix(1 0 0 1 1983.5 1126)">
		<path d="M59.8,15.8c28,0,51-23.1,51-51.1s-23.1-51-51-51c-28,0-51,23-51,51S31.8,15.8,59.8,15.8z M59.8,4.3
			c-21.9,0-39.5-17.7-39.5-39.6s17.5-39.6,39.5-39.6c21.9,0,39.6,17.6,39.6,39.6C99.4-13.3,81.7,4.3,59.8,4.3z"/>
	</g>
	<g id="Medium-M" transform="matrix(1 0 0 1 1687.3 1126)">
		<path d="M59.2,15.2c27.7,0,50.5-22.9,50.5-50.5S86.9-85.7,59.2-85.7c-27.6,0-50.4,22.9-50.4,50.5S31.6,15.2,59.2,15.2z M59.2,5.2
			c-22.4,0-40.3-18-40.3-40.4s17.9-40.4,40.3-40.4c22.4,0,40.4,18,40.5,40.4C99.7-12.8,81.6,5.2,59.2,5.2z"/>
	</g>
	<g id="Regular-M" transform="matrix(1 0 0 1 1391.3 1126)">
		<path d="M58.6,14.4C31.1,14.4,8.9-7.8,8.9-35.3s22.2-49.7,49.7-49.7c1.3,0,2.6,0.1,4,0.2c2.5,0.2,4.3,2.3,4.1,4.8
			c-0.1,0.8-0.3,1.6-0.8,2.2c-1.5,2.1-0.9,5.1,1.2,6.5c0.5,0.3,1,0.5,1.5,0.7c2.4,0.6,3.8,3.1,3.2,5.4c-0.1,0.5-0.3,0.9-0.6,1.3
			c-3.4,5.3-1.8,12.4,3.5,15.8c3.5,2.2,8,2.4,11.6,0.4c2.2-1.2,4.9-0.4,6.1,1.7c0.1,0.2,0.2,0.3,0.2,0.5c1,2.4,3.7,3.6,6.1,2.6
			c0.6-0.2,1.1-0.6,1.5-1c1.8-1.7,4.6-1.7,6.3,0.1c0.7,0.7,1.1,1.6,1.3,2.6c0.2,1.9,0.3,3.9,0.3,5.9C108.2-7.9,86,14.4,58.6,14.4z
			 M56.1-75.9c-22.4,1.3-39.6,20.6-38.2,43.1C19.2-10.4,38.5,6.7,61,5.4c20.9-1.2,37.5-18.1,38.3-39.1c-4.6,0.8-9.3-0.9-12.4-4.4
			C76-34.8,64.7-40.8,61.3-51.5c-0.6-2-0.9-4-0.9-6c0-2.3,0.4-4.5,1.1-6.6c-3.4-2.6-5.4-6.6-5.4-10.9C56.1-75.4,56.1-75.6,56.1-75.9
			z"/>
	</g>
	<g id="Light-M" transform="matrix(1 0 0 1 1095.42 1126)">
		<path d="M57.7,13.7c26.8,0,49-22.2,49-49c0-26.9-22.2-49-49-49c-26.8,0-48.9,22.1-48.9,49C8.7-8.4,30.9,13.7,57.7,13.7z M57.7,7.4
			c-23.6,0-42.6-19-42.6-42.6c0-23.6,19-42.7,42.6-42.7c23.6,0,42.7,19,42.7,42.7C100.4-11.7,81.3,7.4,57.7,7.4z"/>
	</g>
	<g id="Thin-M" transform="matrix(1 0 0 1 799.806 1126)">
		<path d="M56.6,12.6c26.3,0,47.9-21.6,47.9-47.9c0-26.3-21.6-47.9-47.9-47.9c-26.3,0-47.9,21.6-47.9,47.9
			C8.7-9,30.3,12.6,56.6,12.6z M56.6,8.9c-24.4,0-44.2-19.8-44.2-44.1s19.8-44.2,44.1-44.2c24.4,0,44.2,19.8,44.2,44.2
			S81,8.9,56.6,8.9z"/>
	</g>
	<g id="Ultralight-M" transform="matrix(1 0 0 1 503.656 1126)">
		<path d="M56.1,12.1c26,0,47.3-21.3,47.3-47.3S82.1-82.6,56.1-82.6S8.7-61.3,8.7-35.3S30,12.1,56.1,12.1z M56.1,9.7
			c-24.8,0-44.9-20.2-44.9-44.9c0-24.8,20.2-44.9,44.9-44.9c24.8,0,44.9,20.1,44.9,44.9C101-10.5,80.9,9.7,56.1,9.7z"/>
	</g>
	<g id="Black-S" transform="matrix(1 0 0 1 2884.57 696)">
		<path d="M48.8,6.8c23.1,0,42-18.8,42-42c0-23.1-18.8-42-42-42c-23.1,0-42,18.8-42,42C6.8-12.1,25.7,6.8,48.8,6.8z M48.8-7.4
			C33.4-7.4,21-19.8,21-35.2C21-50.6,33.4-63,48.8-63c15.4,0,27.8,12.5,27.8,27.8C76.7-19.8,64.2-7.4,48.8-7.4z"/>
	</g>
	<g id="Heavy-S" transform="matrix(1 0 0 1 2588.47 696)">
		<path d="M48.2,6.2c22.8,0,41.4-18.6,41.4-41.4S71-76.6,48.2-76.6C25.4-76.6,6.8-58,6.8-35.2S25.4,6.2,48.2,6.2z M48.2-6.4
			c-16,0-28.8-12.9-28.8-28.8c0-16,12.8-28.8,28.8-28.8c16,0,28.8,12.8,28.9,28.8C77.1-19.3,64.2-6.4,48.2-6.4z"/>
	</g>
	<g id="Bold-S" transform="matrix(1 0 0 1 2292.44 696)">
		<path d="M47.6,5.5c22.3,0,40.7-18.4,40.7-40.7c0-22.3-18.4-40.7-40.7-40.7c-22.3,0-40.7,18.4-40.7,40.7
			C6.8-12.9,25.2,5.5,47.6,5.5z M47.6-5.3C31-5.3,17.7-18.7,17.7-35.3c0-16.6,13.3-29.9,29.8-29.9c16.6,0,29.9,13.3,29.9,29.9
			C77.4-18.7,64.1-5.3,47.6-5.3z"/>
	</g>
	<g id="Semibold-S" transform="matrix(1 0 0 1 1996.2 696)">
		<path d="M47.1,5c22,0,40.2-18.2,40.2-40.2c0-22-18.2-40.2-40.3-40.2c-22,0-40.2,18.2-40.2,40.2C6.8-13.2,25,5,47.1,5z M47.1-4.6
			c-17,0-30.6-13.6-30.6-30.7c0-17,13.6-30.6,30.6-30.6c17,0,30.7,13.6,30.7,30.6C77.7-18.2,64.1-4.6,47.1-4.6z"/>
	</g>
	<g id="Medium-S" transform="matrix(1 0 0 1 1699.83 696)">
		<path d="M46.7,4.6c21.8,0,39.9-18.1,39.9-39.9S68.5-75.1,46.7-75.1S6.8-57.1,6.8-35.3S24.9,4.6,46.7,4.6z M46.7-4
			C29.4-4,15.5-17.9,15.5-35.3s13.8-31.2,31.2-31.2s31.2,13.9,31.3,31.2C78-17.9,64.1-4,46.7-4z"/>
	</g>
	<g id="Regular-S" transform="matrix(1 0 0 1 1403.58 696)">
		<path d="M46.2,4.2c21.5,0,39.5-17.9,39.5-39.4s-18-39.4-39.5-39.4c-21.5,0-39.4,17.9-39.4,39.4S24.8,4.2,46.2,4.2z M46.2-3.3
			c-17.7,0-31.9-14.2-31.9-32s14.1-32,31.8-32c17.8,0,32,14.2,32,32C78.3-17.5,64-3.3,46.2-3.3z"/>
	</g>
	<g id="Light-S" transform="matrix(1 0 0 1 1107.6 696)">
		<path d="M45.5,3.4c21.2,0,38.7-17.5,38.7-38.7S66.7-73.9,45.5-73.9c-21.2,0-38.7,17.5-38.7,38.7S24.4,3.4,45.5,3.4z M45.5-2.3
			c-18.3,0-32.9-14.7-32.9-33s14.6-33,32.9-33c18.3,0,33,14.7,33,33C78.5-17,63.8-2.3,45.5-2.3z"/>
	</g>
	<g id="Thin-S" transform="matrix(1 0 0 1 811.867 696)">
		<path d="M44.6,2.5c20.7,0,37.7-17,37.7-37.7S65.2-73,44.5-73C23.8-73,6.8-56,6.8-35.3S23.9,2.5,44.6,2.5z M44.6-0.9
			c-19,0-34.3-15.4-34.3-34.3s15.3-34.3,34.3-34.3c19,0,34.3,15.4,34.3,34.3S63.5-0.9,44.6-0.9z"/>
	</g>
	<g id="Ultralight-S" transform="matrix(1 0 0 1 515.644 696)">
		<path d="M44,2c20.5,0,37.3-16.7,37.3-37.2S64.5-72.5,44-72.5S6.8-55.7,6.8-35.3S23.6,2,44,2z M44-0.2c-19.3,0-35-15.7-35-35
			s15.7-35,35-35c19.3,0,35,15.7,35,35S63.4-0.2,44-0.2z"/>
	</g>
</g>
</svg>
