<?xml version="1.0" encoding="utf-8"?>
<!-- Generator: Adobe Illustrator 25.2.0, SVG Export Plug-In . SVG Version: 6.00 Build 0)  -->
<svg version="1.1" id="Layer_1" xmlns="http://www.w3.org/2000/svg" xmlns:xlink="http://www.w3.org/1999/xlink" x="0px" y="0px"
	 viewBox="0 0 128 128" style="enable-background:new 0 0 128 128;" xml:space="preserve">
<style type="text/css">
	.st0{fill:#FFFFFF;}
</style>
<path id="Path_552" class="st0" d="M34.6,64c0,1.5,0.6,2.9,1.7,4l47.6,46.5c1,1.1,2.4,1.7,3.9,1.6c3,0.1,5.4-2.3,5.5-5.2
	c0-0.1,0-0.1,0-0.2c0-1.5-0.6-2.9-1.6-3.9L48,64l43.7-42.8c1-1,1.6-2.4,1.6-3.9c0-3-2.3-5.4-5.3-5.5c-0.1,0-0.1,0-0.2,0
	c-1.5,0-2.9,0.5-3.9,1.6L36.3,60C35.2,61.1,34.6,62.5,34.6,64z"/>
</svg>
