<svg xmlns="http://www.w3.org/2000/svg" width="111.529" height="139.876" viewBox="0 0 111.529 139.876">
  <path id="Path_552" data-name="Path 552" d="M33.933,18.8H66.845a34.8,34.8,0,0,1-7.808-9.669H34.474c-6.186,0-9.489-3.183-9.489-9.189V-90.989c0-5.886,3.243-9.309,9.489-9.309H97.235c6.006,0,9.429,3.363,9.429,9.309v52.431a33.759,33.759,0,0,1,9.669,7.808V-91.109c0-12.612-6.186-18.858-18.618-18.858H33.933c-12.372,0-18.618,6.306-18.618,18.858V-.06C15.315,12.552,21.561,18.8,33.933,18.8Zm9.189-94.592H88.646a3.717,3.717,0,0,0,3.724-3.784,3.6,3.6,0,0,0-3.724-3.6H43.122a3.585,3.585,0,0,0-3.784,3.6A3.694,3.694,0,0,0,43.122-75.794Zm0,20.9H88.646a3.667,3.667,0,0,0,3.724-3.724,3.654,3.654,0,0,0-3.724-3.664H43.122a3.633,3.633,0,0,0-3.784,3.664A3.646,3.646,0,0,0,43.122-54.894ZM89.367,18.8a26.827,26.827,0,0,0,14.714-4.384l13.513,13.513a5.8,5.8,0,0,0,4.384,1.982,4.9,4.9,0,0,0,4.865-5.225,5.337,5.337,0,0,0-1.682-3.664L111.469,7.267a26.783,26.783,0,0,0,4.865-15.435A26.99,26.99,0,0,0,89.367-35.254,27.17,27.17,0,0,0,62.281-8.168,27.067,27.067,0,0,0,89.367,18.8Zm0-8.588a18.481,18.481,0,0,1-18.5-18.378,18.532,18.532,0,0,1,18.5-18.438A18.5,18.5,0,0,1,107.685-8.168,18.4,18.4,0,0,1,89.367,10.21Z" transform="translate(-15.315 109.967)" fill="#fff"/>
</svg>
