<svg xmlns="http://www.w3.org/2000/svg" xmlns:xlink="http://www.w3.org/1999/xlink" width="512" height="512" viewBox="0 0 512 512">
  <defs>
    <clipPath id="clip-Artboard_1">
      <rect width="512" height="512"/>
    </clipPath>
  </defs>
  <g id="Artboard_1" data-name="Artboard – 1" clip-path="url(#clip-Artboard_1)">
    <rect width="512" height="512" fill="rgba(255,255,255,0)"/>
    <path id="Path_12" data-name="Path 12" d="M904.569,368.35c-55.8,0-111.594-2.264-167-6.8a79.044,79.044,0,0,1-72.288-68.323,762.62,762.62,0,0,1,0-209.481,79.046,79.046,0,0,1,72.288-68.323,2055.3,2055.3,0,0,1,334,0,79.053,79.053,0,0,1,72.291,68.325,762.789,762.789,0,0,1,0,209.479,79.051,79.051,0,0,1-72.291,68.323l-1.006-12.292,1.006,12.292c-55.409,4.531-111.2,6.8-167,6.8m0-335.052c-55.126,0-110.252,2.238-164.991,6.714a54.524,54.524,0,0,0-49.866,47.125,737.986,737.986,0,0,0,0,202.707,54.522,54.522,0,0,0,49.866,47.125,2031.279,2031.279,0,0,0,329.979,0,54.531,54.531,0,0,0,49.869-47.125,738.16,738.16,0,0,0,0-202.7,54.534,54.534,0,0,0-49.869-47.128C1014.818,35.536,959.692,33.3,904.569,33.3m-30.8,227.357a26.755,26.755,0,0,1-26.648-26.69V145.243a26.645,26.645,0,0,1,39.969-23.073l76.837,44.358a26.646,26.646,0,0,1,0,46.153l-76.837,44.36a26.588,26.588,0,0,1-13.321,3.614m.01-117.41a1.987,1.987,0,0,0-1,.288,1.839,1.839,0,0,0-.987,1.71v88.723a1.977,1.977,0,0,0,2.966,1.713l76.834-44.36a1.977,1.977,0,0,0,0-3.426l-76.834-44.36a1.924,1.924,0,0,0-.977-.288" transform="translate(-649.05 67.369)" fill="#fff"/>
  </g>
</svg>
